<svg width="154" height="240" viewBox="0 0 154 240" fill="none" xmlns="http://www.w3.org/2000/svg">
<g id="First Pic">
<g id="Group">
<g id="Group_2">
<path id="Vector" d="M32.1096 31.3416C31.3742 32.8894 30.6936 34.4592 30.0569 36.018C25.2817 47.676 22.0543 59.839 19.0026 72.013C12.5698 97.6673 7.97026 123.969 1.44966 149.733C2.58034 150.216 3.72199 150.71 4.85267 151.193C4.8856 151.193 6.94936 147.176 7.15793 146.835C7.76169 151.512 8.22274 151.852 13.0748 152.928C18.0695 154.025 23.1081 154.948 28.1687 155.705C38.3009 157.209 48.5429 158.043 58.7848 158.351C79.4224 158.976 100.06 157.516 120.544 155.167C123.003 154.882 125.451 154.596 127.899 154.289C133.014 153.652 138.964 152.39 141.039 147.889C141.225 148.833 141.401 149.777 141.588 150.732C143.223 151.105 145.078 150.183 145.682 148.679C146.088 150.337 148.383 151.259 149.909 150.381C145.935 130.687 141.961 110.994 137.987 91.3004C134.419 73.5938 130.819 55.8103 124.43 38.8392C120.5 28.4106 115.044 17.7845 105.23 11.8237C94.0883 5.05064 78.6759 4.51275 65.975 6.04959C60.651 6.69726 55.294 7.76207 50.5408 10.1332C41.8247 14.4912 36.1823 22.6694 32.0877 31.3416H32.1096Z" fill="#81607B"/>
<g id="Group_3">
<g id="Group_4" style="mix-blend-mode:multiply" opacity="0.45">
<path id="Vector_2" d="M5.55519 149.942C13.909 122.685 20.5065 94.923 25.3036 66.8208C21.8677 95.1426 15.2044 123.102 5.55519 149.942Z" fill="#4C3648"/>
</g>
<g id="Group_5" style="mix-blend-mode:multiply" opacity="0.45">
<path id="Vector_3" d="M16.8181 128.02C21.231 110.599 24.8645 93.0237 27.7187 75.2732C26.2257 93.1994 22.5483 110.972 16.8181 128.02Z" fill="#4C3648"/>
</g>
<g id="Group_6" style="mix-blend-mode:multiply" opacity="0.45">
<path id="Vector_4" d="M26.1598 54.4929C25.9403 52.0998 26.544 49.7616 27.9162 47.7966C27.8723 50.2007 27.3015 52.3742 26.1598 54.4929Z" fill="#4C3648"/>
</g>
<g id="Group_7" style="mix-blend-mode:multiply" opacity="0.45">
<path id="Vector_5" d="M37.6093 144.113C40.9794 129.249 45.0081 114.518 49.6955 100.016C46.3254 114.891 42.2967 129.601 37.6093 144.113Z" fill="#4C3648"/>
</g>
<g id="Group_8" style="mix-blend-mode:multiply" opacity="0.45">
<path id="Vector_6" d="M49.3112 128.02C49.9918 121.038 51.3531 114.177 53.4058 107.459C52.7252 114.441 51.3531 121.302 49.3112 128.02Z" fill="#4C3648"/>
</g>
<g id="Group_9" style="mix-blend-mode:multiply" opacity="0.45">
<path id="Vector_7" d="M100.741 136.67C98.3036 126.077 97.4912 115.077 98.3694 104.243C98.8634 114.781 99.6867 126.176 100.741 136.67Z" fill="#4C3648"/>
</g>
<g id="Group_10" style="mix-blend-mode:multiply" opacity="0.45">
<path id="Vector_8" d="M106.526 135.485C103.847 128.525 102.936 120.808 103.946 113.409C104.352 120.874 105.197 128.13 106.526 135.485Z" fill="#4C3648"/>
</g>
<g id="Group_11" style="mix-blend-mode:multiply" opacity="0.45">
<path id="Vector_9" d="M118.184 70.0371C122.871 95.0986 126.252 120.424 128.283 145.836C125.44 124.683 121.038 91.4321 118.184 70.0371Z" fill="#4C3648"/>
</g>
<g id="Group_12" style="mix-blend-mode:multiply" opacity="0.45">
<path id="Vector_10" d="M120.258 37.6975C129.523 74.6695 135.473 112.498 137.954 150.535C134.112 112.651 128.195 74.933 120.258 37.6975Z" fill="#4C3648"/>
</g>
<g id="Group_13" style="mix-blend-mode:multiply" opacity="0.45">
<path id="Vector_11" d="M136.593 106.471C138.898 120.215 140.259 134.123 140.644 148.054C138.942 134.683 137.504 119.93 136.593 106.471Z" fill="#4C3648"/>
</g>
<g id="Group_14" style="mix-blend-mode:multiply" opacity="0.45">
<path id="Vector_12" d="M140.457 118.854C142.949 128.799 144.299 139.041 144.464 149.294C142.96 139.491 141.544 128.711 140.457 118.854Z" fill="#4C3648"/>
</g>
</g>
</g>
<path id="Vector_13" d="M139.074 184.334C127.602 192.392 120.412 208.419 106.515 216.191C105.472 216.772 111.74 223.524 111.85 224.479C112.003 225.796 113.299 226.268 114.495 226.586C118.458 227.662 106.636 234.49 110.741 230.494C113.727 227.585 117.942 227.64 121.466 225.884C130.446 221.438 147.043 205.949 148.646 201.459C151.083 194.609 152.719 187.013 149.371 182.797C148.822 182.117 148.152 181.535 147.274 181.271C145.221 180.646 142.356 181.798 139.996 183.599C139.678 183.84 139.381 184.104 139.052 184.334H139.074Z" fill="#FFAAA4"/>
<path id="Vector_14" d="M2.8548 186.014C3.61224 200.822 23.3277 211.767 30.3423 223.601C30.99 224.698 31.7145 225.829 32.6915 226.312C34.0417 226.971 35.3809 226.147 36.5226 225.302C40.2879 222.536 42.6041 221.306 41.682 215.357C41.0124 211.042 36.4897 204.654 34.382 201.064C31.7035 196.508 28.7945 192.161 25.6659 188.078C20.8907 181.853 14.8641 175.86 8.56307 176.211C7.54217 176.266 6.53224 176.496 5.66502 177.1C3.64518 178.483 2.756 181.656 2.81089 184.762C2.81089 185.18 2.83285 185.597 2.8548 186.014Z" fill="#FFAAA4"/>
<g id="Group_15">
<path id="Vector_15" d="M146.681 168.801C146.077 167.572 145.496 166.331 144.925 165.08C143.673 162.335 142.806 159.218 141.313 156.594C140.424 155.024 138.174 153.048 138.174 151.171C133.486 141.05 124.276 134.98 112.904 132.74C96.7997 129.568 80.8495 127.021 64.3285 128.931C53.7572 130.161 43.0761 131.203 32.8013 133.849C15.7972 138.218 7.24579 159.525 0.626399 173.148C0.362941 173.686 0.0994824 174.279 0.209257 174.861C0.319031 175.41 0.747151 175.849 1.16429 176.255C5.07226 180.031 9.12294 183.708 13.6127 186.859C17.4768 189.57 22.241 193.083 26.7417 194.642C27.3235 188.198 30.6716 182.259 31.7584 175.882C30.5838 182.731 29.6288 191.327 32.3841 197.88C34.6565 203.281 34.7333 209.11 33.1855 214.709C32.439 217.409 31.3522 220.011 30.1008 222.514C28.3993 225.906 28.2786 226.345 31.6486 228.387C41.5174 234.391 53.2522 236.982 64.6578 238.277C74.5704 239.397 84.6697 239.584 94.4725 237.794C104.286 236.005 113.826 232.163 121.488 225.884C119.907 227.179 115.593 221.262 115.055 220.373C113.277 217.387 112.541 213.929 112.146 210.526C111.784 207.464 111.586 204.313 112.465 201.338C113.013 199.483 113.968 197.76 114.704 195.97C117.053 190.273 116.768 184.345 116.427 178.33C119.095 184.312 121.236 190.503 122.849 196.816C123.168 198.078 137.449 192.205 138.679 191.349C143.465 187.979 148.899 184.905 153.29 180.986C150.908 177.012 148.712 172.94 146.681 168.801Z" fill="#D823BB"/>
<g id="Group_16">
<g id="Vector_16" style="mix-blend-mode:multiply" opacity="0.51">
<path d="M105.988 141.16C108.381 138.317 110.521 135.122 113.288 132.598C105.175 131.083 97.0851 129.754 88.852 128.931C80.7068 128.13 72.4627 127.976 64.3284 128.931C55.4038 129.974 46.6218 131.182 37.7521 132.499C39.8817 136.143 42.1211 139.645 44.5032 143.158C50.6725 152.269 57.5663 161.907 66.3153 168.966C68.1486 170.448 70.2562 171.864 72.6493 171.897C77.183 171.952 81.2556 167.824 84.0659 164.926C89.1374 159.668 94.209 154.421 99.1159 149.02C101.476 146.429 103.77 143.806 105.999 141.149L105.988 141.16Z" fill="#D823BB"/>
</g>
<g id="Vector_17" style="mix-blend-mode:multiply" opacity="0.59">
<path d="M102.321 138.471C104.363 136.198 106.405 133.915 108.491 131.675C102.003 130.698 95.4714 129.513 88.9398 128.898C80.7946 128.097 72.5505 127.943 64.4162 128.898C61.2986 129.26 58.1262 129.908 54.9976 130.062C51.2653 130.248 47.4122 131.083 43.6908 131.533C44.7666 131.401 46.5998 135.452 47.0719 136.165C48.3782 138.174 49.6955 140.183 51.0677 142.159C53.7462 146.023 56.6113 149.777 59.8277 153.246C63.055 156.715 66.941 160.272 71.9467 161.007C77.2598 161.787 82.4192 157.879 86.1515 154.772C92.0794 149.821 97.2168 144.168 102.321 138.481V138.471Z" fill="#D823BB"/>
</g>
</g>
<g id="Group_17">
<g id="Group_18" style="mix-blend-mode:multiply">
<path id="Vector_18" d="M31.1875 192.403C30.8253 195.795 33.2732 198.737 36.2481 199.999C42.1979 202.546 49.5747 201.426 54.9537 197.968C57.6102 196.201 60.0582 193.083 63.56 193.138C60.0582 193.566 58.0822 196.629 55.4037 198.605C49.8711 202.491 42.1101 203.665 35.9078 200.691C32.878 199.253 30.3532 195.85 31.1875 192.403Z" fill="#CEAF63"/>
</g>
<g id="Group_19" style="mix-blend-mode:multiply">
<path id="Vector_19" d="M82.1338 194.686C89.324 194.653 95.2189 200.262 102.201 200.965C107.415 201.733 112.816 199.318 114.967 194.379C115.769 192.82 116.318 191.129 116.79 189.428C116.537 191.184 116.087 192.919 115.417 194.587C113.376 200.054 107.7 202.678 102.091 201.964C94.7908 201.119 89.3789 195.52 82.1338 194.686Z" fill="#CEAF63"/>
</g>
<g id="Group_20" style="mix-blend-mode:multiply">
<path id="Vector_20" d="M58.7848 200.427C62.594 196.772 68.4998 195.224 73.6263 196.464C68.3461 196.684 63.4612 197.957 58.7848 200.427Z" fill="#CEAF63"/>
</g>
<g id="Group_21" style="mix-blend-mode:multiply">
<path id="Vector_21" d="M30.8802 185.201C30.8912 173.126 31.5937 161.04 32.9879 149.042C32.9879 161.128 32.2743 173.192 30.8802 185.201Z" fill="#CEAF63"/>
</g>
<g id="Group_22" style="mix-blend-mode:multiply">
<path id="Vector_22" d="M116.888 181.239C115.319 171.315 115.725 161.04 118.074 151.281C117.108 161.249 116.702 171.227 116.888 181.239Z" fill="#CEAF63"/>
</g>
<g id="Group_23" style="mix-blend-mode:multiply">
<path id="Vector_23" d="M34.7442 211.152C51.6495 226.466 75.734 232.986 98.117 229.001C75.9096 234.435 50.7274 227.596 34.7442 211.152Z" fill="#CEAF63"/>
</g>
<g id="Group_24" style="mix-blend-mode:multiply">
<path id="Vector_24" d="M65.2176 221.021C79.4005 223.315 93.9346 222.722 107.876 219.275C94.2859 224.084 79.148 224.687 65.2176 221.021Z" fill="#CEAF63"/>
</g>
<g id="Group_25" style="mix-blend-mode:multiply">
<path id="Vector_25" d="M41.9674 227.377C44.9093 228.617 47.5658 229.506 50.6395 230.363C47.5219 230.966 44.0421 229.781 41.9674 227.377Z" fill="#CEAF63"/>
</g>
</g>
</g>
<g id="Group_26">
<path id="Vector_26" d="M73.8459 153.586C74.1313 153.608 74.4167 153.608 74.7022 153.597C78.2369 153.51 81.4094 151.556 84.1867 149.459C90.7731 144.508 96.4046 138.394 100.708 131.533C95.68 131.028 91.5635 124.452 89.9059 120.358C86.931 113.014 88.7094 104.847 89.379 97.2942C87.3482 99.8739 79.8725 100.05 76.7769 100.225C75.273 100.313 63.8894 100.554 63.7686 98.348C64.054 103.398 64.098 108.458 63.9113 113.519C63.615 121.697 62.4294 128.788 53.0327 131.434C54.1414 137.68 58.2909 143.048 62.9344 147.571C65.9422 150.491 69.6196 153.334 73.8349 153.586H73.8459Z" fill="#FFAAA4"/>
<g id="Group_27">
<path id="Vector_27" d="M93.2101 124.771C92.4417 123.783 91.6623 122.795 90.8938 121.796C90.323 123.025 89.2033 123.936 88.1166 124.803C83.3633 128.536 79.0602 132.532 73.9666 135.781C72.7811 134.672 71.5516 133.596 70.3331 132.521C67.1936 129.743 64.3504 126.681 61.8475 123.376C61.1889 124.749 60.3217 126.022 59.2678 127.153C58.5104 127.965 65.9092 134.354 66.7215 134.958C68.4779 136.264 72.0456 140.326 74.5924 139.623C75.0644 139.491 75.4706 139.206 75.8657 138.931C81.6289 134.837 87.5238 131.137 93.0015 126.615C93.2869 126.373 93.6053 126.099 93.6382 125.726C93.6711 125.374 93.4406 125.056 93.2211 124.771H93.2101Z" fill="#4C3648"/>
<path id="Vector_28" d="M74.0984 141.335C74.6472 141.204 74.7131 135.353 74.6802 134.496C74.4057 134.167 73.8349 134.222 73.5166 134.496C73.1872 134.771 73.0555 135.199 72.9677 135.605C72.6164 137.241 73.0006 138.723 73.2092 140.325C73.275 140.819 73.5934 141.456 74.0984 141.335Z" fill="#FDFFA9"/>
<path id="Vector_29" d="M70.0916 144.157C70.1245 145.891 71.4308 147.647 73.2531 147.933C74.4386 148.12 75.723 147.955 76.711 147.318C78.171 146.363 78.3576 144.826 77.8965 143.322C77.688 142.62 77.3477 141.95 76.7988 141.434C74.5045 139.272 70.4538 140.71 70.1135 143.707C70.0916 143.86 70.0916 144.003 70.0916 144.157Z" fill="#CBEFEF"/>
</g>
</g>
<path id="Vector_30" d="M51.4739 92.8812C59.7399 101.85 71.4638 107.58 84.1866 102.937C97.8316 97.9527 106.383 85.8117 110.489 72.9352C110.203 73.8463 114.539 73.5499 114.934 73.4182C116.131 73.034 117.481 72.1997 118.414 71.4093C120.566 69.587 121.872 66.8207 122.706 64.252C123.947 60.4209 124.177 56.2604 123.003 52.4074C122.322 50.1789 121.06 47.9615 118.919 46.8528C116.779 45.744 113.661 46.1722 112.497 48.214C112.113 39.3332 111.147 30.0134 104.956 22.8122C101.652 18.9701 97.0851 16.2477 92.2331 14.4364C87.6994 12.7349 82.8254 11.8567 77.9624 11.6811C71.0137 11.4286 62.5501 12.6471 56.6442 16.3465C50.7603 20.0239 45.7985 25.0626 42.5382 31.0123C38.8059 37.8293 37.3679 45.8319 38.8169 53.3953C36.9068 52.0122 34.3161 51.2877 32.0548 52.0561C30.2215 52.6928 28.8494 54.2186 28.048 55.9092C26.4014 59.3561 26.3794 63.3848 27.3784 66.9964C28.8603 72.3863 34.9089 81.3219 42.0882 78.1934C44.1958 83.3088 47.4232 88.4792 51.4739 92.8702V92.8812Z" fill="#FFB5B0"/>
<g id="Group_28">
<g id="Group_29">
<g id="Group_30">
<g id="Group_31" style="mix-blend-mode:multiply" opacity="0.47">
<path id="Vector_31" d="M32.2085 64.823C31.0559 62.6385 31.0669 55.5361 35.0517 58.028C37.4009 60.3222 38.6852 63.2752 39.4097 66.3379C39.739 67.8747 39.9037 69.4445 39.8927 71.0143C39.8708 71.9144 39.75 72.9682 38.773 73.4622C37.7192 73.9233 36.8081 72.9463 36.5007 72.0901C35.2493 69.181 35.5347 65.6573 37.346 63.0776C35.9628 65.8219 35.9189 69.1261 37.2252 71.7607C38.0595 73.4513 39.0365 72.5731 38.9157 71.0252C38.8279 66.6233 37.5216 61.9579 34.5577 58.6537C31.6926 56.4472 31.6157 63.2971 32.2085 64.834V64.823Z" fill="#936565"/>
</g>
<g id="Group_32" style="mix-blend-mode:multiply" opacity="0.47">
<path id="Vector_32" d="M120.676 55.7336C120.577 52.1439 117.844 50.4973 116.076 54.3175C115.011 56.8862 114.364 59.7842 113.968 62.5615C113.804 64.2411 113.431 66.0743 113.837 67.677C113.958 67.8966 113.968 67.9075 114.21 67.8856C117.514 66.722 117.887 61.2442 114.638 59.6745C116.054 60.1136 117.075 61.4857 117.361 62.9677C117.756 65.2071 116.779 67.9954 114.386 68.7748C113.892 68.9504 113.156 68.5772 112.992 68.0832C112.783 67.6441 112.739 67.2489 112.706 66.8537C112.607 63.8569 113.068 60.9698 113.848 58.1047C114.506 55.9861 115.044 53.6588 116.812 52.1439C119.446 50.19 121.038 53.3954 120.676 55.7226V55.7336Z" fill="#936565"/>
</g>
</g>
<g id="Group_33">
<path id="Vector_33" d="M54.0646 60.3003C53.9768 59.3782 54.2183 58.4231 54.8111 57.7096C55.5246 56.8643 56.8419 56.4252 57.8628 56.9082C58.6422 57.2815 59.0923 58.0938 59.3228 58.9061C59.5314 59.6636 59.5863 60.4869 59.3228 61.2224C58.763 62.7702 57.3578 64.1972 55.5685 62.9788C54.6794 62.375 54.1634 61.3541 54.0646 60.3003Z" fill="#4C3648"/>
<path id="Vector_34" d="M89.8071 60.2015C89.7193 59.2794 89.9608 58.3243 90.5536 57.6108C91.5965 56.3813 93.4187 56.2935 94.3628 57.6657C95.0105 58.5988 95.4496 60.0368 95.0653 61.1236C94.5055 62.6714 93.0894 64.0985 91.3111 62.88C90.4219 62.2762 89.9059 61.2553 89.8071 60.2015Z" fill="#4C3648"/>
</g>
<g id="Group_34" style="mix-blend-mode:multiply">
<path id="Vector_35" d="M70.1355 57.2373C73.6703 60.7172 73.3629 66.9304 69.8172 70.3005L69.8282 69.7077C71.0686 71.2665 72.847 72.4411 74.8558 73.0668C72.6164 72.9241 70.388 71.7934 68.8951 70.0041C72.1993 66.623 72.6494 61.2221 70.1246 57.2483L70.1355 57.2373Z" fill="#DB8983"/>
</g>
<g id="Group_35">
<path id="Vector_36" d="M64.043 49.6192C61.2987 47.9396 58.0823 47.9177 55.1294 48.5105C52.0008 49.246 49.6736 50.7499 46.9402 53.0441C45.7437 45.9966 54.6573 40.9909 60.5632 44.4378C62.4294 45.4697 64.1748 47.4017 64.043 49.6192Z" fill="#81607B"/>
<path id="Vector_37" d="M84.6038 49.0373C84.8672 44.5585 90.0156 42.0556 94.1541 42.4069C98.3805 42.7033 102.684 46.1941 102.42 50.651C99.3904 48.708 96.9424 47.7749 93.726 47.4565C90.6304 47.3138 87.7433 47.4785 84.6148 49.0373H84.6038Z" fill="#81607B"/>
</g>
<g id="Group_36">
<g id="Vector_38" style="mix-blend-mode:multiply">
<path d="M70.7833 86.8546C69.4769 85.9984 68.489 84.7799 67.4351 83.6492C65.5361 81.5964 63.4064 79.7302 61.1012 78.1056C65.5909 77.6555 70.2454 78.9399 73.8021 81.5854C73.6045 81.4427 76.8648 79.7412 77.1612 79.6315C78.5004 79.1375 79.9384 78.7752 81.3326 78.4239C84.055 77.7324 86.3493 76.1077 88.4569 74.3293C85.6577 78.38 83.056 83.9456 78.7639 86.7339C76.4586 88.2268 73.1105 88.3914 70.7942 86.8546H70.7833Z" fill="#936565"/>
</g>
<g id="Group_37" style="mix-blend-mode:multiply">
<path id="Vector_39" d="M60.5852 77.6993C65.2616 79.4228 69.7623 81.7939 74.2191 83.9784C74.285 84.0333 74.757 83.715 74.8558 83.6711C77.677 82.0903 80.6409 80.7072 83.2975 78.9618C85.6686 77.37 87.6555 75.2624 89.4339 73.0339C87.9849 75.5258 86.0967 77.8091 83.7476 79.5984C80.9483 81.6842 77.8527 83.1442 74.8558 84.8127C74.2191 85.2299 73.4727 84.7359 72.9018 84.4285C68.8841 82.3099 64.581 79.8509 60.5852 77.6993Z" fill="#DB8983"/>
</g>
</g>
</g>
<g id="Group_38">
<path id="Vector_40" d="M40.9465 68.5662C40.0464 62.3968 41.4625 56.0299 42.3187 49.9265C42.5382 48.3347 42.7688 46.732 43.3506 45.2281C44.6569 41.88 47.7086 39.1686 48.2136 35.6229C51.7812 35.074 54.9867 32.7577 56.5125 29.6402C58.7739 30.222 61.3975 29.1352 62.4733 27.1483C62.3306 27.785 63.4173 27.8838 64.054 27.6203C66.8203 26.4896 69.411 24.9528 71.6833 23.0756C72.9018 24.9199 75.5694 25.7541 77.699 24.9638C79.1151 25.8639 81.102 25.8749 82.5291 24.9857C82.4851 26.6872 83.9781 28.2899 85.7564 28.4436C86.0199 28.4656 87.9739 31.0892 88.6764 31.4514C90.356 32.3077 92.5844 32.4723 94.4286 32.165C97.6889 36.6108 102.596 39.937 108.085 41.397C108.622 41.5397 109.193 41.6824 109.556 42.0886C109.885 42.4618 109.962 42.9777 110.017 43.4608C110.994 52.1439 110.686 60.9698 109.105 69.5761C110.511 68.138 110.928 66.0853 111.268 64.1532C111.85 60.7722 112.355 57.3911 112.772 53.9881C113.848 45.294 114.309 36.1168 110.478 28.1582C107.031 21.0009 100.389 15.7537 93.0125 12.4824C84.3513 8.6513 75.5913 9.00257 66.48 11.1322C58.5104 12.9984 50.3871 15.8086 44.7886 21.5278C43.4823 22.8671 42.3297 24.3381 41.3088 25.8968C37.3569 31.9783 35.7103 39.3332 36.4897 46.4356C36.8739 49.9594 38.279 52.9782 39.234 56.3153C40.3537 60.2233 40.3976 64.5704 40.9794 68.5662H40.9465Z" fill="#81607B"/>
<g id="Group_39">
<g id="Group_40" style="mix-blend-mode:multiply" opacity="0.45">
<path id="Vector_41" d="M74.746 24.9858C78.3796 25.3042 82.1558 21.023 83.0779 17.7846C83.4292 16.5222 83.5719 15.161 83.7476 13.7998C84 15.15 84.0879 16.5551 83.8573 17.9603C83.3524 21.6267 78.676 26.4897 74.757 24.9968L74.746 24.9858Z" fill="#4C3648"/>
</g>
<g id="Group_41" style="mix-blend-mode:multiply" opacity="0.45">
<path id="Vector_42" d="M79.5212 25.6333C81.4423 25.5675 82.8035 24.1514 84.4391 23.2951C89.3131 20.5288 95.175 19.1347 100.719 20.2215C95.186 20.3093 89.7851 21.6375 84.8014 23.9977C83.1547 24.7112 81.4093 26.0066 79.5212 25.6333Z" fill="#4C3648"/>
</g>
<g id="Group_42" style="mix-blend-mode:multiply" opacity="0.45">
<path id="Vector_43" d="M82.8144 26.2483C88.358 27.4009 93.5284 25.5238 98.3804 22.9331C94.4615 26.7423 87.9189 28.8719 82.8144 26.2483Z" fill="#4C3648"/>
</g>
<g id="Group_43" style="mix-blend-mode:multiply" opacity="0.45">
<path id="Vector_44" d="M88.1385 30.8917C91.6952 32.3188 95.1201 30.8258 98.7207 30.3099C102.431 29.8708 106.262 30.7161 109.336 32.692C105.966 31.4735 102.376 30.8807 98.8415 31.3198C95.4275 31.8248 91.278 33.0982 88.1385 30.8917Z" fill="#4C3648"/>
</g>
<g id="Group_44" style="mix-blend-mode:multiply" opacity="0.45">
<path id="Vector_45" d="M95.8337 33.4824C100.4 36.0841 105.406 37.0611 110.62 36.4902C105.768 38.532 99.4892 37.2916 95.8337 33.4824Z" fill="#4C3648"/>
</g>
<g id="Group_45" style="mix-blend-mode:multiply" opacity="0.45">
<path id="Vector_46" d="M66.5788 26.1604C72.7482 22.5818 77.3916 17.0381 79.4663 10.1772C78.8955 17.3565 73.3848 23.9649 66.5788 26.1604Z" fill="#4C3648"/>
</g>
<g id="Group_46" style="mix-blend-mode:multiply" opacity="0.45">
<path id="Vector_47" d="M62.4513 27.9497C63.9333 20.507 69.1146 13.7559 75.8108 10.2102C69.916 14.9854 65.3384 20.9242 62.4513 27.9497Z" fill="#4C3648"/>
</g>
<g id="Group_47" style="mix-blend-mode:multiply" opacity="0.45">
<path id="Vector_48" d="M53.8121 33.153C56.6223 29.6731 57.2809 25.3151 58.7739 21.1985C60.2448 17.082 63.2087 13.0752 67.457 11.6262C63.6478 13.7888 61.1669 17.5211 59.7179 21.5498C58.2579 25.5566 57.2151 30.244 53.8011 33.153H53.8121Z" fill="#4C3648"/>
</g>
<g id="Group_48" style="mix-blend-mode:multiply" opacity="0.45">
<path id="Vector_49" d="M45.2277 40.6617C48.51 37.2148 47.6427 32.2091 49.1137 27.9608C50.4639 23.5918 53.0766 19.5741 56.6223 16.687C53.6803 20.123 51.3751 24.009 50.0797 28.2572C48.6636 32.3189 49.1027 37.8405 45.2277 40.6617Z" fill="#4C3648"/>
</g>
<g id="Group_49" style="mix-blend-mode:multiply" opacity="0.45">
<path id="Vector_50" d="M43.9214 43.7133C43.6799 43.9768 43.2627 43.7243 43.0651 43.5157C40.2988 39.5968 42.0991 34.2947 44.4263 30.6501C43.4054 34.8655 41.649 39.1247 43.2847 43.351C43.4054 43.5706 43.614 43.856 43.9104 43.7243L43.9214 43.7133Z" fill="#4C3648"/>
</g>
<g id="Group_50" style="mix-blend-mode:multiply" opacity="0.45">
<path id="Vector_51" d="M41.1551 58.0389C41.2539 55.3275 41.2648 52.66 40.683 50.1242C40.1342 47.6323 38.5424 44.7892 39.6841 42.1875C39.3987 45.0197 41.0672 47.2152 41.671 49.9046C42.2528 52.6051 42.0552 55.4482 41.1551 58.0499V58.0389Z" fill="#4C3648"/>
</g>
<g id="Group_51" style="mix-blend-mode:multiply" opacity="0.45">
<path id="Vector_52" d="M86.5358 28.5974C89.862 29.1352 93.1662 28.7949 96.2948 27.5765C99.4014 26.4568 102.673 24.7882 106.098 25.1395C102.717 25.6005 99.8624 27.3459 96.635 28.5315C93.4516 29.761 89.7083 29.9586 86.5358 28.6083V28.5974Z" fill="#4C3648"/>
</g>
</g>
</g>
<g id="Group_52">
<path id="Vector_53" d="M87.6665 4.71041C83.0889 4.45793 78.5003 5.83011 74.6253 8.1683C70.7503 10.5065 67.5558 13.7668 64.9871 17.3784C74.1423 13.8436 84.7575 15.7427 93.5943 19.9251C99.2587 22.6036 104.605 26.3799 108.139 31.4624C112.322 37.489 112.278 44.9208 112.08 51.8585C111.85 60.0806 111.136 68.2917 109.951 76.437C110.247 74.4171 111.916 72.0131 112.695 70.092C113.65 67.7099 114.539 65.3059 115.33 62.8689C116.855 58.1486 118.019 53.3185 118.59 48.4116C119.677 39.0259 118.656 29.0035 113.079 20.957C108.403 14.1949 102.541 9.26605 94.6372 6.2692C92.4087 5.42394 90.0596 4.85311 87.6665 4.72139V4.71041Z" fill="#ADCEEA"/>
<path id="Vector_54" d="M76.217 12.68C75.9865 13.0752 75.7889 13.4924 75.6352 13.9095C75.4376 14.4364 75.251 15.0292 74.779 15.3695C74.4167 15.633 73.9447 15.6988 73.4946 15.7647C65.3494 16.9283 57.5334 20.1118 51.0238 24.9089C40.7489 32.4943 38.3778 45.283 38.773 57.0069C39.0364 64.5375 40.4964 71.9911 42.2638 79.335C39.3767 74.1317 37.0605 69.1919 35.0846 63.6263C31.4949 53.4722 29.7056 43.6254 32.5707 33.0542C35.1724 23.4599 41.1002 14.7438 49.6187 8.99162C58.4336 3.04185 69.4 0.220651 80.2018 0.528019C82.5291 0.593884 84.8673 0.802455 87.0847 1.47208C88.8082 1.999 90.7731 3.27238 91.3879 4.98486C85.8003 4.99584 78.9943 7.81704 76.2061 12.68H76.217Z" fill="#A0E0E0"/>
</g>
</g>
<g id="Group_53">
<g id="Group_54">
<path id="Vector_55" d="M43.5187 4.22876H25.0493V22.344" stroke="#A3A3FF" stroke-width="1.5" stroke-miterlimit="10"/>
<path id="Vector_56" d="M26.6106 2.68359H23.4746V5.76053H26.6106V2.68359Z" fill="#A3A3FF" stroke="#A3A3FF" stroke-width="1.5" stroke-miterlimit="10"/>
</g>
<g id="Group_55">
<path id="Vector_57" d="M43.5187 107.805H25.0493V89.6902" stroke="#A3A3FF" stroke-width="1.5" stroke-miterlimit="10"/>
<path id="Vector_58" d="M26.6106 106.274H23.4746V109.351H26.6106V106.274Z" fill="#A3A3FF" stroke="#A3A3FF" stroke-width="1.5" stroke-miterlimit="10"/>
</g>
<g id="Group_56">
<path id="Vector_59" d="M108.656 108.152H127.125V90.0366" stroke="#A3A3FF" stroke-width="1.5" stroke-miterlimit="10"/>
<path id="Vector_60" d="M128.7 106.607H125.564V109.684H128.7V106.607Z" fill="#A3A3FF" stroke="#A3A3FF" stroke-width="1.5" stroke-miterlimit="10"/>
</g>
<g id="Group_57">
<path id="Vector_61" d="M107.868 4.40186H126.351V22.5171" stroke="#A3A3FF" stroke-width="1.5" stroke-miterlimit="10"/>
<path id="Vector_62" d="M127.912 2.85669H124.776V5.93362H127.912V2.85669Z" fill="#A3A3FF" stroke="#A3A3FF" stroke-width="1.5" stroke-miterlimit="10"/>
</g>
<g id="Group_58">
<path id="Vector_63" d="M74.8126 4.05566H21.6997V107.939H74.8126V4.05566Z" fill="url(#paint0_linear_2017_7577)"/>
<path id="Vector_64" d="M75.3598 107.952V4.05566" stroke="#A3A3FF" stroke-miterlimit="10"/>
</g>
</g>
<g id="Group_59">
<g id="Vector_65" style="mix-blend-mode:soft-light" opacity="0.4">
<path d="M60.6181 68.0394C59.7509 66.7441 62.594 65.4707 63.0441 67.0514C63.4612 68.4346 61.4414 68.742 60.6181 68.0394Z" fill="black"/>
</g>
<g id="Vector_66" style="mix-blend-mode:soft-light" opacity="0.4">
<path d="M51.6386 69.7627C51.8581 70.4982 50.6725 70.9483 50.3432 70.2457C49.8602 69.3236 51.3751 68.7638 51.6386 69.7627Z" fill="black"/>
</g>
<g id="Vector_67" style="mix-blend-mode:soft-light" opacity="0.4">
<path d="M56.9077 79.2473C56.9516 80.4438 55.2501 80.4548 55.0525 79.368C54.9867 78.2044 56.8309 78.0837 56.9077 79.2473Z" fill="black"/>
</g>
<g id="Vector_68" style="mix-blend-mode:soft-light" opacity="0.4">
<path d="M59.235 78.9729C59.5643 79.9499 57.9835 80.389 57.7311 79.401C57.4895 78.446 58.9386 78.0178 59.235 78.9729Z" fill="black"/>
</g>
<g id="Vector_69" style="mix-blend-mode:soft-light" opacity="0.4">
<path d="M55.8649 68.259C55.5685 67.6772 56.5674 67.1942 56.8309 67.8199C57.1163 68.4017 56.1283 68.8847 55.8649 68.259Z" fill="black"/>
</g>
<g id="Vector_70" style="mix-blend-mode:soft-light" opacity="0.4">
<path d="M55.2391 82.3429C54.5805 82.3429 54.5476 81.344 55.2062 81.344C55.8649 81.344 55.8978 82.3429 55.2391 82.3429Z" fill="black"/>
</g>
<g id="Vector_71" style="mix-blend-mode:soft-light" opacity="0.4">
<path d="M56.8529 70.147C57.5664 70.2348 57.6323 71.3435 56.8968 71.4643C56.2601 71.6289 55.788 70.7946 56.2711 70.3555C56.4247 70.2019 56.6333 70.147 56.8529 70.1689V70.147Z" fill="black"/>
</g>
<g id="Vector_72" style="mix-blend-mode:soft-light" opacity="0.4">
<path d="M60.0802 72.6608C60.651 74.4062 57.2151 75.6796 56.8419 73.7805C57.2261 73.0999 59.6521 71.2008 60.0802 72.6608Z" fill="black"/>
</g>
<g id="Vector_73" style="mix-blend-mode:soft-light" opacity="0.4">
<path d="M61.5073 70.1032C61.2658 71.0912 59.685 70.5204 60.157 69.6092C60.4864 68.8628 61.7488 69.3019 61.5073 70.1032Z" fill="black"/>
</g>
<g id="Vector_74" style="mix-blend-mode:soft-light" opacity="0.4">
<path d="M62.8685 74.1758C63.0441 74.8783 62.0012 75.043 61.8146 74.3953C61.628 73.6927 62.6818 73.5281 62.8685 74.1758Z" fill="black"/>
</g>
<g id="Vector_75" style="mix-blend-mode:soft-light" opacity="0.4">
<path d="M64.4931 72.2658C63.8345 72.2658 63.8015 71.2559 64.4602 71.2559C65.1188 71.2559 65.1518 72.2658 64.4931 72.2658Z" fill="black"/>
</g>
<g id="Vector_76" style="mix-blend-mode:soft-light" opacity="0.4">
<path d="M57.9616 80.85C58.3568 81.5196 57.4676 82.2331 56.8748 81.7172C56.3808 81.3988 56.7102 80.323 57.3139 80.5206C57.5664 80.4877 57.8408 80.6194 57.9616 80.839V80.85Z" fill="black"/>
</g>
<g id="Vector_77" style="mix-blend-mode:soft-light" opacity="0.4">
<path d="M54.3281 68.665C54.6793 69.2688 53.9768 69.9823 53.3401 69.7518C52.0008 69.2029 53.5926 67.3917 54.3281 68.665Z" fill="black"/>
</g>
<g id="Vector_78" style="mix-blend-mode:soft-light" opacity="0.4">
<path d="M65.8543 68.665C64.8663 68.665 64.8115 67.1611 65.7994 67.1611C66.7874 67.1611 66.8423 68.665 65.8543 68.665Z" fill="black"/>
</g>
<g id="Vector_79" style="mix-blend-mode:soft-light" opacity="0.4">
<path d="M67.2485 70.2677C67.007 71.0032 65.7775 71.0361 65.6019 70.2457C65.2835 68.8626 67.7425 68.8406 67.2485 70.2677Z" fill="black"/>
</g>
<g id="Vector_80" style="mix-blend-mode:soft-light" opacity="0.4">
<path d="M62.6489 71.9801C61.9903 71.9801 61.9573 70.9702 62.616 70.9702C63.2746 70.9702 63.3076 71.9801 62.6489 71.9801Z" fill="black"/>
</g>
<g id="Vector_81" style="mix-blend-mode:soft-light" opacity="0.4">
<path d="M54.1634 71.2888C54.8769 71.9145 53.878 72.9573 53.1754 72.3426C52.4619 71.7718 53.5157 70.707 54.1634 71.2888Z" fill="black"/>
</g>
</g>
<g id="Vector_82" style="mix-blend-mode:soft-light" opacity="0.3">
<path d="M60.0802 42.2753C58.0384 42.901 55.788 42.901 53.7462 42.2753C55.8539 41.9789 57.9725 41.9789 60.0802 42.2753Z" fill="black"/>
</g>
<g id="Vector_83" style="mix-blend-mode:soft-light" opacity="0.3">
<path d="M53.2522 34.8214C60.135 35.8643 66.7874 31.627 73.6483 33.2626C66.7764 32.5711 60.0692 36.7974 53.2522 34.8214Z" fill="black"/>
</g>
<g id="Vector_84" style="mix-blend-mode:soft-light" opacity="0.3">
<path d="M73.308 40.9252C71.87 40.9252 69.8391 40.9142 68.434 41.024C67.0289 41.1008 65.0091 41.3862 63.593 41.5729C66.5679 40.1568 70.1685 39.9262 73.308 40.9252Z" fill="black"/>
</g>
</g>
</g>
<defs>
<linearGradient id="paint0_linear_2017_7577" x1="21.6997" y1="55.9906" x2="74.8126" y2="55.9906" gradientUnits="userSpaceOnUse">
<stop offset="0.4" stop-color="white" stop-opacity="0"/>
<stop offset="0.73" stop-color="#E7F5FF" stop-opacity="0.29"/>
<stop offset="1" stop-color="#D6EFFF" stop-opacity="0.5"/>
</linearGradient>
</defs>
</svg>
