<svg width="206" height="214" viewBox="0 0 206 214" fill="none" xmlns="http://www.w3.org/2000/svg">
<g id="Second Pic">
<g id="OBJECTS">
<g id="body">
<g id="Group">
<g id="Group_2">
<path id="Vector" d="M84.9138 180.78C81.6703 188.086 78.1299 195.263 73.9314 202.098C72.7551 204.013 71.4508 205.978 69.4418 207.092C67.4386 208.206 64.5387 208.15 63.1295 206.381C61.4816 204.315 61.8892 199.736 61.3535 197.183C60.5324 193.247 60.4858 189.368 61.039 185.377C62.1687 177.226 65.453 169.489 68.7081 161.948C72.9415 152.141 77.1807 142.338 81.4141 132.53C82.9165 129.048 85.7873 121.043 90.6263 120.931C94.3356 120.847 96.6066 124.816 97.416 128.298C101.446 145.624 91.8375 165.179 84.908 180.78H84.9138Z" fill="#EA9C92"/>
<path id="Vector_2" d="M205.115 184.973C205.12 184.75 205.126 184.531 205.126 184.307C205.243 175.809 202.453 167.715 198.878 160.056C194.767 151.256 190.784 142.4 186.731 133.572C185.357 130.577 183.72 127.324 180.588 126.042C177.082 124.609 172.814 126.356 170.56 129.306C168.307 132.256 167.713 136.096 167.777 139.758C167.969 151.055 173.355 162.156 178.072 172.249C179.51 175.328 181.193 178.306 183.109 181.15C185.887 185.276 192.065 196.853 198.441 195.627C200.899 195.156 202.849 193.292 203.863 191.159C204.783 189.228 205.045 187.09 205.109 184.968L205.115 184.973Z" fill="#EA9C92"/>
</g>
<g id="Group_3">
<path id="Vector_3" d="M187.395 132.385C184.652 128.393 179.4 120.528 178.549 119.453C175.306 115.355 171.014 112.719 165.849 111.37C158.023 109.326 149.847 108.99 141.782 108.817C130.881 108.582 119.986 109.522 109.214 111.062C101.096 112.221 94.056 113.239 88.1805 119.173C86.6898 120.679 76.1616 134.171 77.7571 135.833C84.8555 143.228 90.7543 151.681 95.1857 160.801C95.8205 159.508 96.4552 158.209 97.0841 156.916C96.7987 163.158 95.2207 169.455 93.334 175.434C92.8448 176.985 85.8979 193.281 85.5892 193.057C97.4218 202.501 113.121 206.946 128.663 208.032C138.166 208.698 147.873 208.071 157.068 205.591C166.251 203.117 174.834 199.596 182.585 194.16C181.292 195.067 177.542 191.842 176.744 191.114C174.863 189.407 173.384 187.291 172.33 185.024C170.426 180.926 169.809 176.391 169.494 171.913C168.935 164.02 169.244 156.07 170.42 148.239C170.496 147.74 170.583 147.22 170.91 146.828C171.189 146.486 171.608 146.291 172.016 146.106C175.19 144.645 178.683 143.441 181.345 141.258C183.977 139.103 186.679 137.138 189.054 134.697C189.019 134.73 188.367 133.801 187.395 132.385Z" fill="#7575E4"/>
<g id="Group_4">
<g id="Group_5" style="mix-blend-mode:multiply">
<path id="Vector_4" d="M96.5949 160.896C100.927 148.933 97.1073 136.158 96.7055 123.887L96.9617 126.21L97.2587 128.528C98.5049 138.946 101.003 150.931 96.5949 160.896Z" fill="#7575E4"/>
</g>
<path id="Vector_5" d="M169.873 156.25C168.767 147.707 169.116 138.968 170.915 130.532C169.797 139.063 169.448 147.657 169.873 156.25Z" fill="black"/>
</g>
</g>
</g>
<g id="head">
<path id="Vector_6" d="M160.282 10.4725C158.512 9.34727 156.602 8.3676 154.558 7.51109C151.489 6.22913 148.252 5.31104 144.95 4.79602C144.117 4.66726 135.528 3.74917 135.447 4.43214C135.604 3.13898 135.901 1.86262 136.338 0.631035C134.905 1.53793 133.933 3.0886 133.77 4.73444C132.011 2.4896 129.397 0.877351 126.543 0.289551C128.424 1.38118 129.926 3.0718 130.753 5.03114C129.082 4.00109 127.271 3.17257 125.39 2.56798C126.98 3.24535 128.348 4.39296 129.268 5.81487C120.388 4.8408 111.572 8.81545 104.84 14.4639C100.258 18.3098 96.4086 22.9674 93.5262 28.1177C90.568 33.4023 88.8036 39.0676 86.1366 44.4809C85.5252 45.7237 84.8963 46.9553 84.2674 48.1925C79.871 56.8191 75.0902 65.7089 67.0834 71.4526C72.1146 71.1055 76.0044 67.2316 79.3702 63.6152C77.3496 67.6906 74.5137 71.3966 71.0606 74.4587C74.3798 74.134 77.5068 72.3259 79.3527 69.6556C78.7879 72.2979 77.1865 74.7218 74.9388 76.3397C79.673 80.9021 85.3156 85.0671 90.667 88.9466C95.3022 92.3055 100.246 95.2724 105.434 97.7804C105.295 96.644 105.155 95.5076 105.021 94.3712C106.162 96.3193 107.618 98.0939 109.318 99.611C109.65 98.6481 109.982 97.6852 110.32 96.7224C112.364 99.8293 116.324 101.19 120.062 101.957C130.748 104.145 141.794 103.138 152.322 100.675C162.938 98.1891 172.825 93.761 183.289 90.8891C181.281 85.4142 181.048 79.5026 180.832 73.6974C181.071 78.2486 182.445 82.7495 184.804 86.7018C185.153 87.2896 185.887 87.9501 186.451 87.5415C182.655 75.0297 183.849 61.6335 181.612 48.7803C179.807 38.407 175.737 28.4032 169.739 19.6086C167.171 15.8355 164.038 12.8405 160.306 10.4725H160.282Z" fill="#443206"/>
<path id="Vector_7" d="M140.49 134.733C146.231 133.575 150.319 130.204 154.319 126.331C156.293 124.422 157.924 122.563 159.123 120.061C159.828 118.594 161.441 115.258 161.086 113.656C160.696 111.91 158.244 111.915 156.771 111.675C153.824 111.188 150.872 110.701 147.926 110.214C146.854 106.301 146.901 101.621 146.656 97.5844C146.394 93.2458 146.348 88.8905 146.505 84.5464C145.276 85.6324 142.155 86.1139 140.559 86.3938C138.614 86.7352 136.606 86.7744 134.637 86.8808C133.321 86.9536 123.323 87.1663 123.212 85.2741C123.457 89.6071 123.503 93.9568 123.34 98.2953C123.201 102.001 123.067 105.506 122.199 109.128C122.118 109.469 122.019 109.822 121.774 110.079C121.535 110.331 121.192 110.46 120.86 110.572C119.387 111.059 117.855 111.367 116.324 111.669C114.041 112.123 111.758 112.57 109.476 113.024C110.337 119.652 113.936 124.147 119.06 128.458C123.911 132.539 130.165 135.327 136.606 135.17C137.916 135.136 139.208 134.985 140.484 134.728L140.49 134.733Z" fill="#EA9C92"/>
<g id="head2">
<path id="Vector_8" d="M112.261 81.7304C113.699 82.8427 115.25 83.82 116.851 84.6552C125.791 89.2981 136.961 90.3418 146.796 86.8071C156.636 83.2668 164.84 74.9965 167.329 65.2474C167.152 65.9377 170.584 65.7533 170.874 65.6691C171.983 65.3483 173.259 64.6184 174.163 63.9188C176.244 62.3028 177.613 59.8122 178.544 57.4765C179.93 54.01 180.421 50.2038 179.626 46.662C179.161 44.6108 178.175 42.5515 176.313 41.4854C174.452 40.4136 171.6 40.734 170.411 42.5747C170.676 34.4493 170.44 25.9028 165.336 19.1795C162.608 15.5921 158.664 12.9946 154.397 11.2156C150.412 9.54744 146.058 8.62757 141.666 8.34996C135.387 7.95323 127.647 8.86728 122.043 12.0953C116.469 15.3125 111.622 19.8012 108.266 25.1623C104.413 31.3084 102.565 38.5762 103.353 45.5293C101.72 44.2166 99.4239 43.4893 97.3302 44.1457C95.6261 44.6805 94.2854 46.0462 93.4378 47.5743C91.716 50.6816 91.4161 54.3608 92.0681 57.6919C92.6085 60.4688 93.9348 63.2149 95.7708 65.3773C98.1019 68.1271 100.362 69.1119 104.022 67.7102C104.279 73.3455 107.701 78.1976 112.268 81.7248L112.261 81.7304Z" fill="#FFAAA4"/>
<g id="Group_6">
<g id="Group_7">
<g id="Group_8" style="mix-blend-mode:multiply" opacity="0.47">
<path id="Vector_9" d="M97.1076 54.8274C96.9604 52.9929 98.513 46.5239 100.162 48.8387C101.006 50.8576 101.077 53.6168 100.848 56.3567C100.622 58.1012 100.412 59.9205 99.7607 61.6595C99.4155 62.5256 98.6509 63.0374 98.3279 62.3595C97.8778 60.9861 98.2285 58.9817 98.6869 57.2491C99.1023 55.8471 99.7174 54.4732 100.493 53.321C99.0428 55.7425 98.2472 58.782 98.418 61.2521C98.5433 63.0403 99.511 62.0991 99.8106 60.551C100.734 56.5081 101.01 52.1849 99.9271 49.1414C99.5638 48.4167 98.8306 48.6147 98.393 49.7415C97.6348 51.3575 97.1847 53.1476 97.109 54.8217L97.1076 54.8274Z" fill="#775555"/>
</g>
<g id="Group_9" style="mix-blend-mode:multiply" opacity="0.47">
<path id="Vector_10" d="M177.719 50.3958C178.041 49.0003 178.181 46.6573 176.97 47.0221C175.876 47.5502 175.116 49.3328 174.48 50.7535C173.676 52.6034 172.957 54.5071 172.351 56.4312C172.125 57.2527 170.588 61.7539 171.479 61.4655C173.673 60.4495 175.067 55.2817 173.453 53.8647C174.919 54.912 174.316 58.6578 172.775 60.732C172.268 61.454 171.012 62.6341 170.892 61.3686C170.933 59.7309 171.584 57.9966 172.042 56.3537C172.907 53.7576 173.87 51.1414 175.146 48.7683C177.165 45.1832 178.755 46.6225 177.719 50.3958Z" fill="#775555"/>
</g>
</g>
<g id="Group_10" style="mix-blend-mode:multiply" opacity="0.6">
<path id="Vector_11" d="M131.37 40.0875C132.229 43.1704 132.434 47.0908 131.285 50.7067C130.901 51.9082 130.359 53.0406 129.705 53.9799L129.728 53.7087C130.33 54.816 130.933 55.929 131.503 57.087C130.796 56.0524 130.117 54.9727 129.446 53.8874C132.059 49.9492 132.153 44.3403 131.369 40.0931L131.37 40.0875Z" fill="#775555"/>
</g>
<g id="Group_11">
<path id="Vector_12" d="M124.718 35.4005C120.61 34.0225 117.11 35.1596 113.119 38.8548C111.88 39.9598 110.676 41.2095 109.353 42.5318C111.654 34.7057 121.038 28.78 124.719 35.3944L124.718 35.4005Z" fill="#443206"/>
<path id="Vector_13" d="M148.531 34.2178C152.022 31.9247 156.154 31.1053 159.194 32.7912C161.892 34.375 162.532 38.4422 161.854 42.1013C161.196 40.5672 160.662 39.057 159.954 37.7951C159.357 36.7325 158.687 35.8634 157.697 35.3155C155.052 33.9612 151.76 34.2407 148.526 34.2178L148.531 34.2178Z" fill="#443206"/>
</g>
<g id="Group_12">
<g id="Vector_14" style="mix-blend-mode:multiply" opacity="0.59">
<path d="M129.508 74.3914C125.359 72.5845 123.346 67.9344 121.036 64.0661C125.267 65.0818 129.642 65.7398 134.125 66.0345C134.667 66.0701 135.211 66.0996 135.776 66.0142C136.374 65.9224 136.979 65.7039 137.578 65.4854C139.596 64.7548 141.614 64.0182 143.631 63.2877C145.742 62.5198 148.095 61.6102 150.013 60.0243L146.118 65.4709C141.621 71.7573 135.662 77.0784 129.502 74.3915L129.508 74.3914Z" fill="#DB8983"/>
</g>
<g id="Group_13" style="mix-blend-mode:multiply" opacity="0.63">
<path id="Vector_15" d="M120.743 64.9513C123.799 67.7737 128.259 69.3959 133.739 68.4937C136.463 68.117 139.193 67.4522 141.986 65.6695C144.77 64.0286 147.486 62.0784 150.221 60.1584C147.655 62.3393 145.025 64.4982 142.183 66.2998C139.33 68.2955 136.206 69.1272 133.431 69.5178C127.741 70.4442 123.097 68.536 120.738 64.9516L120.743 64.9513Z" fill="#775555"/>
</g>
</g>
</g>
<path id="Vector_16" d="M102.754 54.9383C103.4 58.4485 103.825 62.4824 102.279 65.1806C105.148 60.1696 105.692 54.4581 106.075 48.9149C106.491 42.941 107.019 37.2118 108.963 31.4224C107.759 37.4386 106.73 43.5516 107.128 49.5932C108.025 42.1416 110.027 33.1598 115.498 27.4411C113.626 30.1651 112.383 33.303 111.901 36.5243C113.127 33.8464 114.672 31.3093 116.497 28.9811C115.649 30.7195 114.792 32.5095 114.615 34.4039C115.862 32.2847 117.648 30.4734 119.74 29.2054C122.417 27.5846 125.21 26.2316 127.856 24.5525C131.202 22.4316 133.956 19.3281 135.67 15.7539C134.46 19.963 130.93 23.1034 127.585 25.9725C132.378 24.3446 136.298 20.0406 137.495 15.1003C136.981 19.0459 139.05 23.0774 142.486 24.8203C141.416 23.3129 140.673 21.5552 140.328 19.7103C141.501 22.2621 143.801 24.5157 146.277 25.7728C148.31 26.8051 150.532 27.4454 152.619 28.364C156.54 30.091 160.137 33.0179 161.489 37.1282C161.313 34.0217 161.076 30.7467 159.353 28.2437C162.493 31.8778 164.499 36.5176 165.036 41.4004C165.261 38.3391 165.622 35.2757 166.119 32.2331C166.292 35.5985 166.642 39.1815 167.648 42.3733C168.484 45.0254 170.027 47.5755 169.771 50.5152C170.03 47.5353 170.824 44.5409 171.163 41.5575C171.814 35.7797 171.773 29.8282 169.65 24.4717C167.021 17.8356 161.359 12.8627 154.884 9.6982C147.29 5.98603 139.322 6.09086 130.908 7.82393C123.546 9.34323 115.993 11.7207 110.512 16.8177C109.233 18.0094 108.081 19.3312 107.06 20.7313C103.508 25.586 101.806 31.1171 101.282 36.8695C100.832 41.7778 101.045 45.9787 101.943 50.8251C102.162 51.9991 102.482 53.4233 102.76 54.9441L102.754 54.9383Z" fill="#443206"/>
<g id="Group_14">
<g id="Vector_17" style="mix-blend-mode:multiply">
<path d="M120.389 44.9089C120.253 44.6884 120.086 44.5131 119.89 44.3945C119.058 43.8732 117.828 44.4262 117.156 45.3517C115.835 47.1802 116.177 51.993 118.916 51.1218C120.855 50.5033 121.42 46.5455 120.389 44.9089Z" fill="#262135"/>
</g>
<g id="Vector_18" style="mix-blend-mode:multiply">
<path d="M150.065 48.3378C150.184 49.4006 150.6 50.3607 151.373 50.7263C152.004 51.0259 152.844 50.8427 153.423 50.2872C154.967 48.7946 154.926 44.9477 153.164 44.086C152.311 43.6671 151.145 44.325 150.59 45.2879C150.14 46.0753 149.948 47.2636 150.065 48.3378Z" fill="#262135"/>
</g>
</g>
</g>
<g id="Group_15">
<g id="Vector_19" style="mix-blend-mode:multiply">
<path d="M121.757 109.615C119.806 113.517 124.231 118.051 127.335 120.005C132.809 123.448 138.626 122.457 143.925 119.109C147.419 116.903 148.84 113.22 148.205 109.301" stroke="#7575E4" stroke-width="0.87" stroke-miterlimit="10"/>
</g>
<path id="Vector_20" d="M122.578 107.152C122.263 107.991 122.729 108.954 123.445 109.525C127.661 112.89 136.344 112.33 141.276 111.361C143.989 110.83 146.749 109.967 147.902 107.303" stroke="#4C3648" stroke-width="1.93" stroke-miterlimit="10" stroke-linecap="round"/>
<g id="Group_16">
<path id="Vector_21" d="M128.971 121.074C128.016 121.029 127.096 121.785 127.032 122.675C126.968 123.565 127.778 124.427 128.733 124.483C129.688 124.539 130.608 123.767 130.637 122.877C130.666 121.986 129.793 121.158 128.838 121.175" fill="#FDFFA9"/>
<path id="Vector_22" d="M144.484 119.092C143.529 119.047 142.609 119.803 142.545 120.693C142.481 121.583 143.291 122.445 144.246 122.501C145.201 122.557 146.121 121.785 146.15 120.895C146.179 120.005 145.305 119.176 144.35 119.193" fill="#FDFFA9"/>
<path id="Vector_23" d="M135.08 111.714C136.239 111.07 137.916 111.462 138.615 112.531C139.313 113.601 138.912 115.168 137.764 115.829C136.617 116.489 134.934 116.131 134.212 115.067C133.49 114.009 133.869 112.436 134.998 111.753" fill="#4E7F84"/>
<path id="Vector_24" d="M138.172 123.951C139.092 122.261 136.507 121.41 135.389 122.569C134.474 123.515 135.15 125.144 136.611 125.004C137.281 124.942 137.869 124.506 138.172 123.946V123.951Z" fill="#FDFFA9"/>
</g>
</g>
</g>
</g>
<g id="hands">
<g id="soap">
<path id="Vector_25" d="M146.409 57.1447C147.736 58.1299 148.138 60.3972 146.362 61.3824C143.212 63.1235 140.935 57.906 144.208 56.8032C145.052 56.5177 145.821 56.708 146.403 57.1447H146.409Z" fill="#ADCEEA"/>
<path id="Vector_26" d="M65.4559 39.3915C66.7836 40.3768 67.1854 42.644 65.4093 43.6293C62.259 45.3703 59.9821 40.1528 63.2548 39.05C64.0991 38.7645 64.8678 38.9548 65.4501 39.3915H65.4559Z" fill="#ADCEEA"/>
<path id="Vector_27" d="M187.456 5.3915C188.784 6.37677 189.185 8.64401 187.409 9.62928C184.259 11.3703 181.982 6.15284 185.255 5.05001C186.099 4.76451 186.868 4.95485 187.45 5.3915H187.456Z" fill="#ADCEEA"/>
<path id="Vector_28" d="M141.368 88.098C136.11 88.8034 132.069 81.6938 140.209 80.4846C140.955 80.3727 141.857 80.3167 142.323 80.8933C142.521 81.1396 142.591 81.4531 142.76 81.7162C143.47 82.8246 145.52 82.5671 145.59 84.4593C145.619 85.3046 145.2 86.1163 144.53 86.6649C143.482 87.5158 142.399 87.9581 141.368 88.098Z" fill="#CBEFEF"/>
<path id="Vector_29" d="M167.332 44.4537C166.86 44.868 166.179 45.0695 165.579 44.868C165.305 44.7728 165.055 44.6049 164.758 44.5769C163.477 44.4817 162.947 44.9968 162.365 43.7708C161.957 42.9143 163.04 40.6974 163.71 40.1936C165.713 38.6933 168.293 40.1544 168.17 42.444C168.135 43.1158 167.937 43.8044 167.472 44.3082C167.425 44.3586 167.378 44.4034 167.326 44.4481L167.332 44.4537Z" fill="#ADCEEA"/>
<path id="Vector_30" d="M65.7136 88.7853C65.2419 89.1995 64.5606 89.4011 63.9608 89.1995C63.6871 89.1044 63.4367 88.9364 63.1397 88.9084C61.8586 88.8133 61.3287 89.3283 60.7464 88.1023C60.3388 87.2458 61.4219 85.029 62.0916 84.5251C64.0947 83.0248 66.6744 84.4859 66.5521 86.7756C66.5172 87.4473 66.3192 88.1359 65.8533 88.6397C65.8067 88.6901 65.7602 88.7349 65.7077 88.7797L65.7136 88.7853Z" fill="#ADCEEA"/>
<path id="Vector_31" d="M41.7135 58.7853C41.2419 59.1995 40.5606 59.4011 39.9608 59.1995C39.6871 59.1044 39.4367 58.9364 39.1397 58.9084C37.8586 58.8133 37.3287 59.3283 36.7464 58.1023C36.3388 57.2458 37.4219 55.029 38.0915 54.5251C40.0947 53.0248 42.6744 54.4859 42.5521 56.7756C42.5171 57.4473 42.3192 58.1359 41.8533 58.6397C41.8067 58.6901 41.7601 58.7349 41.7077 58.7797L41.7135 58.7853Z" fill="#ADCEEA"/>
<path id="soaaap" d="M152.852 82.6926C149.434 85.8388 148.718 95.8649 149.073 98.4513C148.52 94.415 142.289 93.3962 140.123 90.6251C138.563 88.6266 138.382 85.4245 140.391 83.8402C139.255 81.7465 138.446 79.4009 138.702 77.0497C138.959 74.6985 140.484 72.3809 142.819 71.6476C143.512 71.4293 144.263 71.3509 144.892 70.987C146.534 70.0297 146.459 67.7737 146.336 65.9319C146.202 63.883 146.301 61.6886 147.507 59.9924C148.712 58.2961 151.373 57.4228 153.062 58.6768C152.491 57.0925 152.963 55.206 154.221 54.0472C155.479 52.8884 157.459 52.5189 159.083 53.1403C159.532 51.2481 161.674 49.8878 163.66 50.2349C165.646 50.582 167.154 52.5805 166.88 54.5006C168.604 54.523 170.258 55.6426 170.858 57.1989C171.457 58.7552 170.957 60.6417 169.658 61.7334C172.639 63.6647 172.552 68.647 169.501 70.4776C171.288 71.6812 171.457 74.2955 170.473 76.1653C169.483 78.035 167.649 79.3282 165.885 80.5542C163.462 82.2336 160.364 83.9802 157.68 82.715C157.022 82.4071 156.434 81.9201 155.712 81.7913C154.599 81.5898 153.65 81.9537 152.852 82.687V82.6926Z" fill="white"/>
</g>
<g id="right hand">
<path id="Vector_32" d="M141.894 98.3649C141.893 98.7827 141.92 99.2055 141.976 99.6447C142.17 101.227 142.68 102.779 143.185 104.315C144.84 109.353 146.389 114.353 148.066 119.38C150.727 127.348 153.609 135.265 156.713 143.11C162.686 158.218 169.59 173.283 180.125 186.13C183.342 190.054 187.048 193.866 191.799 195.88C194.742 197.129 198.567 197.454 200.599 195.257C202.277 193.446 202.077 190.65 201.607 188.188C198.973 174.392 190.858 161.908 182.911 149.826C177.466 141.543 172.014 133.26 166.569 124.983C163.581 120.438 160.587 115.888 158.063 111.112C157.501 110.041 156.946 108.93 156.872 107.758C156.674 104.64 159.803 102.056 161.128 99.4514C162.936 95.8985 164.811 92.44 166.268 88.7144C168.25 83.65 169.984 78.0493 174.574 74.9299C173.614 73.6701 171.63 73.5007 170.225 74.1425C168.82 74.7842 167.859 76.02 166.951 77.2207C167.639 71.7623 166.837 66.0612 164.646 60.8209C164.354 60.1218 163.977 59.3681 163.263 59.0343C162.549 58.7006 161.495 59.1536 161.64 59.8843C161.306 58.2546 160.926 56.0839 159.237 55.1061C158.837 54.8724 158.312 54.7432 157.93 54.9608C157.606 55.1432 157.47 55.5076 157.383 55.8597C157.19 56.6432 157.149 57.4628 157.255 58.2734C156.8 57.4199 155.637 57.0342 154.932 57.7786C154.298 58.4536 154.336 59.486 154.395 60.4162C154.656 64.5318 155.286 68.6503 155.268 72.7835C155.263 74.342 155.187 75.9302 154.647 77.3765C154.473 77.8435 153.917 78.353 153.521 78.0006C153.375 77.8685 153.335 77.6605 153.311 77.4691C152.789 73.8224 152.529 70.1697 152.22 66.5125C152.12 65.3687 151.981 64.1297 151.14 63.2681C150.84 62.9588 150.396 62.7092 149.985 62.8145C149.428 62.9627 149.289 63.6321 149.258 64.1861C148.817 72.0496 150.396 80.6463 146.319 87.6949C144.307 91.1678 141.892 94.2603 141.899 98.3535L141.894 98.3649Z" fill="#FFAAA4"/>
<g id="Group_17">
<g id="Group_18" style="mix-blend-mode:multiply" opacity="0.36">
<path id="Vector_33" d="M162.035 57.6941C164.132 64.7334 165.066 72.5075 164.641 79.696C164.635 72.3875 163.739 64.9055 162.035 57.6941Z" fill="#775555"/>
</g>
<g id="Group_19" style="mix-blend-mode:multiply" opacity="0.36">
<path id="Vector_34" d="M158.031 58.2847C159.803 64.9621 160.48 72.2296 159.919 78.8808C160.05 72.0846 159.401 65.103 158.031 58.2847Z" fill="#775555"/>
</g>
<g id="Group_20" style="mix-blend-mode:multiply" opacity="0.36">
<path id="Vector_35" d="M166.557 74.706C167.498 81.3278 167.48 88.1984 165.789 93.8844C167.003 87.885 167.014 81.3026 166.557 74.706Z" fill="#775555"/>
</g>
</g>
<g id="Group_21">
<path id="Vector_36" d="M172.931 77.5389C172.975 77.0501 173.191 76.6166 173.462 76.2228C174.138 75.2413 175.247 74.4852 176.532 74.5453C176.758 74.5532 177.05 74.653 177.077 74.8733C177.096 75.0241 176.966 75.1308 176.844 75.2142C175.753 75.9817 174.731 76.8294 173.786 77.7572C173.683 77.8577 173.575 77.964 173.437 78.007C173.3 78.0499 173.11 78.024 173.007 77.8979C172.923 77.7947 172.924 77.661 172.931 77.5389Z" fill="#7373BF"/>
<path id="Vector_37" d="M165.362 63.239C164.785 63.7901 163.95 62.6013 163.738 62.1166C163.436 61.429 163.197 60.7175 163.028 59.9989C162.855 59.2463 163.003 58.1294 164.027 58.6837C164.285 58.8208 164.493 59.0498 164.673 59.2908C165.272 60.1034 165.554 61.1039 165.621 62.0689C165.644 62.4038 165.616 62.9897 165.362 63.2334L165.362 63.239Z" fill="#7373BF"/>
<path id="Vector_38" d="M161.639 59.1711C161.61 59.8828 161.338 60.383 160.531 60.154C160.152 60.0419 159.82 59.7354 159.596 59.387C159.372 59.0387 159.235 58.6488 159.103 58.2588C159.003 57.9706 158.903 57.6824 158.803 57.3941C158.665 56.9986 158.526 56.5917 158.504 56.1882C158.482 55.779 158.586 55.3617 158.879 55.1227C159.855 54.3187 160.741 55.5361 161.114 56.5017C161.295 56.9647 161.679 58.243 161.639 59.1711Z" fill="#7373BF"/>
<path id="Vector_39" d="M157.043 57.613C157.043 57.613 157.071 57.6296 157.082 57.6351C157.43 57.8616 157.613 58.2849 157.73 58.6753C157.95 59.4109 158.019 60.1779 157.936 60.908C157.914 61.1133 157.877 61.3189 157.762 61.4748C157.318 62.0923 156.339 61.4682 156.037 60.8992C155.675 60.2119 155.499 59.4527 155.449 58.7138C155.389 57.8101 156.038 56.978 157.043 57.6074L157.043 57.613Z" fill="#7373BF"/>
<path id="Vector_40" d="M150.159 65.8072C150.027 65.2011 149.835 64.3402 149.949 63.7465C150.04 63.2613 150.473 63.0481 150.944 63.1983C151.172 63.2735 151.41 63.3542 151.569 63.5388C151.728 63.7234 151.777 63.9727 151.815 64.2052C151.865 64.5057 151.921 64.8061 151.97 65.1009C152.078 65.7188 152.052 66.7147 151.355 66.8988C150.738 67.0643 150.293 66.4359 150.166 65.8639C150.163 65.8412 150.16 65.8185 150.153 65.8016L150.159 65.8072Z" fill="#7373BF"/>
</g>
</g>
<g id="left hand">
<path id="Vector_41" d="M63.1085 83.6459C63.2242 83.929 63.3273 84.2233 63.4074 84.5223C64.2509 87.6086 63.4853 91.1134 62.1661 94.2478C66.0622 95.6215 67.7573 101.105 65.5349 105.13C64.0745 107.768 61.1369 109.374 58.4067 109.429C55.2256 109.489 53.3371 106.998 50.0728 106.86C47.0733 106.735 44.1349 106.926 41.19 106.374C35.3334 105.271 30.4711 101.683 27.8065 96.1798C26.9035 94.3052 26.1855 92.1041 26.8962 89.9763C27.6069 87.8486 30.3613 86.2799 31.8793 87.614C31.2187 83.11 34.9283 77.9932 39.347 77.3121C40.6647 77.1085 42.0237 77.2432 43.2882 76.7067C46.7563 75.2396 44.7199 72.0625 43.4449 70.3045C42.4021 68.871 42.0898 66.1953 43.8099 65.4227C43.1538 67.1228 44.9691 68.4368 46.55 68.8895C49.3224 69.6807 52.3564 69.9545 54.7177 71.5737C57.0798 73.1871 58.4543 76.8432 56.6133 79.4613C59.457 79.0354 62.0148 80.995 63.1013 83.6573L63.1085 83.6459Z" fill="white"/>
<path id="Vector_42" d="M45.9153 111.535C41.137 109.164 37.0916 105.719 33.8593 101.589C30.7082 97.5664 28.3901 93.1825 26.7246 88.313C26.5952 87.9326 26.4636 87.5291 26.5258 87.1122C26.5391 87.015 26.5637 86.9127 26.6328 86.8356C26.7286 86.7195 26.8831 86.6811 27.03 86.6596C27.8173 86.5547 28.5702 86.8969 29.119 87.4073C29.6677 87.9178 30.0358 88.5804 30.4002 89.2313C33.2414 94.3143 36.3123 99.0807 40.7297 102.964C39.4922 101.171 38.2338 99.3368 37.6498 97.2078C36.9488 94.6473 37.731 92.5859 38.8021 90.1647C39.1335 89.4159 41.9231 81.9762 42.2885 81.9943C43.2945 82.0441 43.9033 83.0523 44.0372 84.0256C44.2418 85.4568 43.7827 86.9474 43.2694 88.3662C42.3245 90.9949 40.5574 93.7901 41.7315 96.4776C42.5083 98.2479 43.8344 99.821 45.2896 101.072C44.3162 99.6492 43.5698 98.0473 42.9877 96.4132C42.8013 95.9034 42.6226 95.3767 42.6293 94.8189C42.637 94.2152 42.8573 93.6162 43.0813 93.0289C43.9201 90.8264 44.7861 88.6195 45.9089 86.5232C46.3883 85.6263 48.4904 83.0721 49.2482 85.0601C49.4833 85.6816 49.2451 86.412 48.9648 87.0599C49.4959 86.1368 50.0979 85.2402 50.7519 84.3922C50.882 84.2203 51.0226 84.0489 51.2114 83.9547C51.4517 83.8342 51.7316 83.8538 51.9642 83.9459C52.5096 84.1685 52.8023 84.7583 52.8393 85.347C52.8763 85.9357 52.6984 86.5368 52.5175 87.1205C51.9895 88.8032 51.3935 90.4769 50.737 92.1245C50.533 92.6437 50.3152 93.1853 50.36 93.7169C50.5322 95.6989 53.8942 97.4705 55.4381 98.3063C57.6479 99.4973 60.0869 100.297 62.5539 100.931C71.016 103.104 70.7486 107.372 71.2721 116.121C72.3798 134.737 72.0633 153.829 71.3111 172.676C70.9135 182.667 70.2137 192.92 66.4172 202.428C64.9996 205.982 62.956 209.592 59.7447 211.407C53.3333 215.031 49.7588 208.094 48.8878 202.637C46.6911 188.84 51.4844 174.29 54.8447 160.164C56.602 152.788 57.9791 145.348 58.9697 137.888C59.6692 132.641 62.0808 123.439 60.3151 118.64C58.6377 114.092 49.813 113.483 45.9182 111.552L45.9153 111.535Z" fill="#FFAAA4"/>
<g id="Group_22">
<g id="Group_23" style="mix-blend-mode:multiply" opacity="0.76">
<path id="Vector_43" d="M48.3456 86.1509C46.9166 88.9079 45.4789 91.7345 44.3615 94.6486C44.233 95.0554 44.2108 95.4489 44.2484 95.8241C44.4256 97.3131 44.8403 98.6539 45.3959 99.819C45.9595 100.984 46.6799 101.973 47.5295 102.752C45.7239 101.358 44.4567 98.9663 44.0644 95.9311C43.9444 95.135 44.3328 94.1692 44.7091 93.3539C45.7933 90.8797 47.0135 88.467 48.3456 86.1509Z" fill="#DB8983"/>
</g>
<g id="Group_24" style="mix-blend-mode:multiply" opacity="0.76">
<path id="Vector_44" d="M41.3604 96.7021C41.5766 100.205 42.7731 103.082 44.576 105.172C42.5408 103.414 41.2775 100.347 41.3604 96.7021Z" fill="#DB8983"/>
</g>
<g id="Group_25" style="mix-blend-mode:multiply" opacity="0.76">
<path id="Vector_45" d="M37.098 101.328C37.8164 103.197 38.7243 104.844 39.8115 106.336C38.4849 105.156 37.5264 103.414 37.098 101.328Z" fill="#DB8983"/>
</g>
</g>
<g id="Group_26">
<path id="Vector_46" d="M23.703 89.0491C23.6939 88.9777 23.6836 88.9122 23.6698 88.8407C23.6145 88.5311 22.3067 85.1315 21.5505 86.1562C21.1968 86.6337 21.2688 87.252 21.3718 87.7703C21.5889 88.914 21.8329 90.0227 22.5131 90.8813C22.5823 90.966 22.6599 91.0568 22.7658 91.0832C22.9776 91.1358 23.2229 90.9403 23.3754 90.7247C23.7293 90.2235 23.7743 89.6022 23.7017 89.0549L23.703 89.0491Z" fill="#7373BF"/>
<path id="Vector_47" d="M36.9922 86.67C37.3269 86.7594 37.6998 86.8439 38.0515 86.6469C38.3393 86.4894 38.5484 86.172 38.7227 85.8656C39.2623 84.8882 39.5494 83.7822 39.5332 82.7514C39.5286 82.3883 39.44 81.9823 39.1316 81.9227C38.7817 81.8621 38.4355 82.2818 38.2086 82.6632C37.5433 83.7783 37.0611 84.997 36.7904 86.2263C36.7677 86.3371 36.7426 86.4594 36.7907 86.5425C36.8306 86.6195 36.9183 86.6449 36.998 86.6642L36.9922 86.67Z" fill="#7373BF"/>
<path id="Vector_48" d="M45.2432 84.0165C45.0569 84.077 44.895 84.2269 44.7428 84.377C43.9488 85.168 43.3043 86.1402 42.8918 87.1773C42.7462 87.5464 42.6289 87.9636 42.7654 88.2745C42.8666 88.5018 43.0861 88.6255 43.3121 88.6961C43.4974 88.7539 43.7069 88.7886 43.9161 88.7109C44.1904 88.5993 44.3988 88.3205 44.5856 88.0529C45.2053 87.1748 45.8519 86.2381 46.0136 85.2245C46.0666 84.9064 46.0645 84.575 45.9347 84.3234C45.8049 84.0717 45.528 83.9229 45.2384 84.0164L45.2432 84.0165Z" fill="#7373BF"/>
<path id="Vector_49" d="M48.6472 84.6003C48.0741 85.2397 47.5698 85.9571 47.1687 86.7241C46.893 87.2528 46.5149 88.4085 46.9319 88.8125C47.1211 88.9934 47.4521 88.9483 47.7158 88.7722C48.8723 88.0114 49.7435 86.2144 49.6814 84.9248C49.6642 84.5538 49.4908 84.138 49.1478 84.2181C48.984 84.2554 48.8405 84.3991 48.7124 84.5372C48.6934 84.5603 48.6744 84.5833 48.6519 84.6005L48.6472 84.6003Z" fill="#7373BF"/>
</g>
</g>
</g>
</g>
</g>
</svg>
