<svg width="20" height="20" viewBox="0 0 20 20" fill="none" xmlns="http://www.w3.org/2000/svg">
<path d="M12.4218 10.2885C12.4218 11.1397 11.144 12.6155 10.2215 13.3533C10.1421 13.4167 10.0348 13.4173 9.95551 13.3533C9.03297 12.6155 7.75583 11.139 7.75583 10.2885C7.75583 9.76254 8.12977 9.33526 8.58904 9.33526C9.00365 9.33526 9.42225 9.58456 9.42225 10.1411C9.42225 10.5091 9.72021 10.8077 10.0888 10.8077C10.4574 10.8077 10.7554 10.5091 10.7554 10.1411C10.7554 9.5459 11.2047 9.33526 11.5886 9.33526C12.0479 9.33526 12.4218 9.7632 12.4218 10.2885ZM17.9977 8.48405V14.6672C17.9977 16.5049 16.5026 18 14.6648 18H5.33285C3.49512 18 2 16.5049 2 14.6672V8.48405C2 7.37422 2.54925 6.3417 3.46845 5.72112L8.13444 2.57292C9.26694 1.80903 10.7307 1.80903 11.8632 2.57292L16.5292 5.72179C17.4484 6.34237 17.9977 7.37488 17.9977 8.48472V8.48405ZM13.755 10.2885C13.755 9.02731 12.7831 8.00213 11.5886 8.00213C10.9954 8.00213 10.4721 8.21409 10.0888 8.57004C9.70554 8.21476 9.18229 8.00213 8.58904 8.00213C7.39455 8.00213 6.42269 9.02798 6.42269 10.2885C6.42269 11.8262 8.18843 13.6466 9.12229 14.3945C9.40692 14.6225 9.74754 14.7358 10.0888 14.7358C10.4301 14.7358 10.7701 14.6218 11.0547 14.3945C11.9885 13.6473 13.755 11.8276 13.755 10.2885Z" fill="black"/>
</svg>
