<svg width="20" height="20" viewBox="0 0 20 20" fill="none" xmlns="http://www.w3.org/2000/svg">
<path d="M14.6674 18H5.33353C4.44975 17.9989 3.60247 17.6474 2.97754 17.0225C2.35261 16.3975 2.00106 15.5503 2 14.6665L2 13.3331C2 12.8026 2.21073 12.2939 2.58582 11.9188C2.96092 11.5437 3.46965 11.3329 4.00012 11.3329H16.0008C16.5313 11.3329 17.04 11.5437 17.4151 11.9188C17.7902 12.2939 18.0009 12.8026 18.0009 13.3331V14.6665C17.9999 15.5503 17.6483 16.3975 17.0234 17.0225C16.3985 17.6474 15.5512 17.9989 14.6674 18ZM16.6675 9.99953V8.66612C16.6675 8.31248 16.527 7.97332 16.277 7.72326C16.0269 7.47319 15.6878 7.33271 15.3341 7.33271H4.66682C4.31318 7.33271 3.97402 7.47319 3.72396 7.72326C3.4739 7.97332 3.33341 8.31248 3.33341 8.66612V9.99953H16.6675ZM14.6414 5.9993C14.5756 4.68898 14.2053 3.41203 13.56 2.26974C13.4925 2.17813 13.4026 2.10542 13.2989 2.05863C13.1952 2.01184 13.0812 1.99254 12.9679 2.00259C12.8545 2.01264 12.7457 2.05169 12.6518 2.116C12.558 2.1803 12.4822 2.26769 12.4319 2.36975C12.2339 2.85768 11.8938 3.27479 11.4557 3.56692C11.0175 3.85904 10.5017 4.01266 9.97513 4.00785H8.66706C8.00928 3.9579 7.35335 4.12585 6.80052 4.48577C6.24769 4.84569 5.8287 5.37757 5.60821 5.9993H14.6414Z" fill="black"/>
</svg>
