<svg width="92" height="174" viewBox="0 0 92 174" fill="none" xmlns="http://www.w3.org/2000/svg">
<path d="M84.1668 66.3291C84.1668 66.3291 86.2484 76.219 84.3749 83.2783C82.5015 90.3725 79.8994 93.2731 84.7565 101.625C89.6137 110.013 93.5687 110.991 91.383 113.717C89.1973 116.408 84.4443 118.015 84.4443 118.015C84.4443 118.015 84.7565 119.553 85.9708 120.916C87.2198 122.279 87.3239 124.446 85.381 126.018C83.4382 127.556 83.6464 127.381 83.6464 127.381C83.6464 127.381 84.5484 128.01 85.2422 129.548C85.9708 131.26 85.0688 133.077 83.23 133.881C81.3913 134.685 80.628 135 80.2811 135.594C79.8647 136.328 80.2811 136.432 80.7668 139.228C81.2525 142.024 82.1545 144.68 78.7199 147.266C75.2852 149.852 68.624 148.804 62.8996 146.182C57.1751 143.561 44.1997 142.967 34.4508 151.215C27.3386 157.191 23.6611 162.538 20.4346 174C20.4346 174 13.3571 125.843 26.0203 109.628C29.0733 105.714 33.7916 103.233 39.2385 101.171C55.267 95.1252 77.7485 92.5741 84.0974 66.364L84.1668 66.3291Z" fill="#1E1E54"/>
<path d="M0.034701 0H38.8916C52.1445 0 63.2812 4.78771 72.3015 14.3631C77.8525 20.1992 81.5647 26.9789 83.5075 34.7371C86.7687 47.5975 84.7218 59.6542 77.3668 70.942C74.7301 74.8211 71.6423 78.2109 68.1383 81.1464C64.773 83.6975 60.5057 86.2486 55.3016 88.7998C52.0404 90.3724 43.6793 93.6574 30.1834 98.6198C28.4835 99.2139 27.0957 99.7731 26.0202 100.262C21.0937 102.324 17.5897 104.281 15.5428 106.098C13.5999 108.16 12.6632 110.537 12.6632 113.193V172.987H0V0H0.034701ZM38.8916 12.7556H12.6979V92.6439C14.9877 91.1762 17.8325 89.7783 21.1978 88.4503C23.4876 87.4718 27.0957 86.1438 32.0222 84.4314C39.1344 81.8803 44.4425 79.8184 47.9119 78.2458C54.2955 75.2055 59.1873 72.1301 62.5526 68.95C69.9076 61.6811 73.0994 52.8745 72.128 42.5652C72.0239 40.9926 71.7117 39.42 71.226 37.8474C68.8321 28.2719 63.2118 21.1777 54.4343 16.5648C49.5078 14.0137 44.3038 12.7556 38.8916 12.7556Z" fill="#1E1E54"/>
</svg>
