<svg width="20" height="20" viewBox="0 0 20 20" fill="none" xmlns="http://www.w3.org/2000/svg">
<g id="home icon">
<path id="Vector" d="M10.089 14.7361C9.74776 14.7361 9.40716 14.6221 9.12255 14.3942C8.18874 13.6463 6.42244 11.826 6.42244 10.289C6.42244 9.02794 7.39424 8.00282 8.58866 8.00282C9.18187 8.00282 9.7051 8.21478 10.0884 8.5707C10.4716 8.21544 10.9948 8.00282 11.5881 8.00282C12.7825 8.00282 13.7543 9.02861 13.7543 10.289C13.7543 11.8267 11.9886 13.647 11.0548 14.3949C10.7702 14.6228 10.4296 14.7361 10.089 14.7361ZM8.58866 9.33522C8.12942 9.33522 7.7555 9.76313 7.7555 10.2884C7.7555 11.1388 9.03324 12.6145 9.95572 13.3531C10.0344 13.4177 10.1417 13.4177 10.2217 13.3531C11.1441 12.6145 12.4212 11.1388 12.4212 10.2877C12.4212 9.7618 12.0473 9.33455 11.5881 9.33455C11.1735 9.33455 10.7549 9.58383 10.7549 10.1404C10.7549 10.5083 10.4569 10.8069 10.0884 10.8069C9.71977 10.8069 9.42183 10.5083 9.42183 10.1404C9.42183 9.54517 8.97258 9.33455 8.58866 9.33455V9.33522ZM14.6641 18.0001H5.33266C3.49503 18.0001 2 16.5051 2 14.6675V8.48472C2 7.37561 2.54856 6.34316 3.46837 5.72195L8.13409 2.57326C9.26586 1.80941 10.7302 1.80874 11.8633 2.57326L16.529 5.72128C17.4482 6.34182 17.9967 7.37428 17.9967 8.48405V14.6668C17.9967 16.5044 16.5017 18.0001 14.6641 18.0001ZM9.99904 3.3351C9.60912 3.3351 9.21987 3.44974 8.87994 3.67903L4.21422 6.82706C3.66233 7.19965 3.33306 7.81886 3.33306 8.48472V14.6675C3.33306 15.7699 4.23021 16.6671 5.33266 16.6671H14.6641C15.7665 16.6671 16.6637 15.7699 16.6637 14.6675V8.48472C16.6637 7.81886 16.3344 7.19898 15.7832 6.82706L11.1175 3.67903C10.7775 3.44974 10.3883 3.3351 9.99904 3.3351Z" fill="black"/>
</g>
</svg>
