<svg width="20" height="20" viewBox="0 0 20 20" fill="none" xmlns="http://www.w3.org/2000/svg">
<path d="M16.6586 10.127V9.33808C16.6569 8.92614 16.528 8.52478 16.2894 8.18892C16.0509 7.85305 15.7144 7.59909 15.326 7.46178C15.3609 5.74315 14.9353 4.04648 14.0934 2.54781C13.9651 2.36676 13.7927 2.2216 13.5924 2.12618C13.3921 2.03077 13.1707 1.98828 12.9493 2.00277C12.7189 2.01776 12.4961 2.09137 12.302 2.2166C12.108 2.34184 11.9492 2.51456 11.8406 2.71838C11.3282 3.65853 10.8218 4.00767 9.9703 4.00767H8.66301C7.68647 3.95851 6.72884 4.28947 5.99105 4.93111C5.25325 5.57275 4.79264 6.4752 4.70585 7.44912C4.30783 7.58029 3.9611 7.83323 3.71468 8.1722C3.46825 8.51117 3.3346 8.91901 3.3326 9.33808V10.127C2.94421 10.2643 2.60773 10.5183 2.36919 10.8541C2.13065 11.19 2.00171 11.5913 2 12.0033V14.6685C2.00106 15.5517 2.35239 16.3985 2.97694 17.0231C3.60149 17.6476 4.44826 17.9989 5.33151 18H14.6597C15.543 17.9989 16.3897 17.6476 17.0143 17.0231C17.6388 16.3985 17.9902 15.5517 17.9912 14.6685V12.0033C17.9895 11.5913 17.8606 11.19 17.622 10.8541C17.3835 10.5183 17.047 10.2643 16.6586 10.127ZM8.66301 5.34028H9.9703C10.6192 5.34101 11.2539 5.15038 11.7951 4.79223C12.3362 4.43408 12.7597 3.92432 13.0126 3.32671C13.6738 4.55968 14.0112 5.94025 13.9934 7.33918H6.08509C6.19182 6.74633 6.51431 6.214 6.99035 5.84488C7.46639 5.47576 8.06226 5.296 8.66301 5.34028ZM4.66521 9.33808C4.66521 9.16137 4.7354 8.99189 4.86036 8.86694C4.98532 8.74198 5.15479 8.67178 5.33151 8.67178H14.6597C14.8364 8.67178 15.0059 8.74198 15.1309 8.86694C15.2558 8.99189 15.326 9.16137 15.326 9.33808V10.0044H4.66521V9.33808ZM16.6586 14.6685C16.6586 15.1986 16.448 15.7071 16.0732 16.0819C15.6983 16.4568 15.1899 16.6674 14.6597 16.6674H5.33151C4.80136 16.6674 4.29294 16.4568 3.91807 16.0819C3.5432 15.7071 3.3326 15.1986 3.3326 14.6685V12.0033C3.3326 11.8266 3.4028 11.6571 3.52776 11.5321C3.65271 11.4072 3.82219 11.337 3.9989 11.337H15.9923C16.169 11.337 16.3385 11.4072 16.4635 11.5321C16.5884 11.6571 16.6586 11.8266 16.6586 12.0033V14.6685Z" fill="black"/>
</svg>
