<svg width="20" height="20" viewBox="0 0 20 20" fill="none" xmlns="http://www.w3.org/2000/svg">
<path d="M6.61669 7.06663C7.33277 7.06663 8.01953 6.78216 8.52588 6.27581C9.03222 5.76947 9.31669 5.08271 9.31669 4.36663C9.31669 3.65054 9.03222 2.96379 8.52588 2.45744C8.01953 1.95109 7.33277 1.66663 6.61669 1.66663C5.9006 1.66663 5.21385 1.95109 4.7075 2.45744C4.20115 2.96379 3.91669 3.65054 3.91669 4.36663C3.91669 5.08271 4.20115 5.76947 4.7075 6.27581C5.21385 6.78216 5.9006 7.06663 6.61669 7.06663ZM1.66669 9.55783C1.66669 8.67763 2.37859 7.96663 3.25789 7.96663H7.54819C7.23175 8.51366 7.06563 9.13466 7.06669 9.76663C7.06608 10.2775 7.17447 10.7825 7.38461 11.2481C7.59475 11.7137 7.90181 12.1291 8.28529 12.4666H7.30789C6.80065 12.4666 6.30548 12.6214 5.88849 12.9102C5.47151 13.199 5.15255 13.6082 4.97419 14.083C3.62599 13.7536 2.78989 13.0183 2.29759 12.1993C1.66669 11.149 1.66669 10.069 1.66669 9.88093V9.55783ZM14.2667 9.76663C14.2678 9.13466 14.1017 8.51364 13.7852 7.96663H18.0755C18.9557 7.96663 19.6667 8.67853 19.6667 9.55783V9.88183C19.6667 10.0681 19.6667 11.149 19.0367 12.1993C18.5435 13.0183 17.7074 13.7536 16.3592 14.083C16.1809 13.6081 15.862 13.1989 15.445 12.9101C15.028 12.6212 14.5328 12.4665 14.0255 12.4666H13.0481C13.4316 12.1291 13.7386 11.7137 13.9488 11.2481C14.1589 10.7825 14.2673 10.2775 14.2667 9.76663ZM17.4167 4.36663C17.4167 5.08271 17.1322 5.76947 16.6259 6.27581C16.1195 6.78216 15.4328 7.06663 14.7167 7.06663C14.0006 7.06663 13.3138 6.78216 12.8075 6.27581C12.3012 5.76947 12.0167 5.08271 12.0167 4.36663C12.0167 3.65054 12.3012 2.96379 12.8075 2.45744C13.3138 1.95109 14.0006 1.66663 14.7167 1.66663C15.4328 1.66663 16.1195 1.95109 16.6259 2.45744C17.1322 2.96379 17.4167 3.65054 17.4167 4.36663ZM5.71669 14.9578C5.71669 14.0776 6.42859 13.3666 7.30789 13.3666H14.0255C14.9048 13.3666 15.6167 14.0785 15.6167 14.9578V15.2818C15.6167 15.4681 15.6167 16.549 14.9867 17.5993C14.318 18.7099 13.0184 19.6666 10.6667 19.6666C8.31499 19.6666 7.01449 18.7099 6.34669 17.5993C5.71669 16.549 5.71669 15.469 5.71669 15.2809V14.9578ZM10.6667 12.4666C11.0213 12.4666 11.3724 12.3968 11.6999 12.2611C12.0275 12.1254 12.3252 11.9265 12.5759 11.6758C12.8266 11.4251 13.0255 11.1274 13.1612 10.7999C13.2968 10.4723 13.3667 10.1212 13.3667 9.76663C13.3667 9.41206 13.2968 9.06096 13.1612 8.73338C13.0255 8.4058 12.8266 8.10816 12.5759 7.85744C12.3252 7.60672 12.0275 7.40784 11.6999 7.27215C11.3724 7.13646 11.0213 7.06663 10.6667 7.06663C9.9506 7.06663 9.26385 7.35109 8.7575 7.85744C8.25115 8.36379 7.96669 9.05054 7.96669 9.76663C7.96669 10.4827 8.25115 11.1695 8.7575 11.6758C9.26385 12.1822 9.9506 12.4666 10.6667 12.4666Z" fill="black"/>
</svg>
