<svg width="20" height="20" viewBox="0 0 20 20" fill="none" xmlns="http://www.w3.org/2000/svg">
<path d="M10.0001 1.9H10C8.39797 1.9 6.83192 2.37506 5.49988 3.2651C4.16785 4.15514 3.12965 5.42018 2.51658 6.90026C1.90351 8.38034 1.7431 10.009 2.05564 11.5802C2.36818 13.1515 3.13963 14.5948 4.27244 15.7276C5.40524 16.8604 6.84853 17.6318 8.41977 17.9444C9.99102 18.2569 11.6197 18.0965 13.0997 17.4834C14.5798 16.8704 15.8449 15.8322 16.7349 14.5001C17.6249 13.1681 18.1 11.602 18.1 10V9.99989C18.0977 7.85238 17.2436 5.79349 15.725 4.27497C14.2065 2.75645 12.1476 1.90232 10.0001 1.9ZM9.99989 16.5667C8.70117 16.5666 7.43161 16.1815 6.35176 15.46C5.27188 14.7384 4.43021 13.7129 3.93319 12.513C3.43618 11.3131 3.30614 9.99271 3.55951 8.71891C3.81289 7.4451 4.4383 6.27503 5.35667 5.35666C6.27503 4.4383 7.4451 3.81289 8.71891 3.55951C9.99272 3.30613 11.3131 3.43618 12.513 3.93319C13.7129 4.43021 14.7384 5.27187 15.46 6.35176C16.1815 7.43161 16.5666 8.70116 16.5667 9.99989C16.5648 11.7409 15.8723 13.4101 14.6412 14.6412C13.4101 15.8723 11.7409 16.5648 9.99989 16.5667Z" fill="black" stroke="black" stroke-width="0.2"/>
<path d="M7.84711 12.1761L7.84713 12.1761L10.6668 9.91933H10.7668V9.91881V6.66667C10.7668 6.46333 10.686 6.26833 10.5422 6.12455C10.3985 5.98077 10.2035 5.9 10.0001 5.9C9.79679 5.9 9.60179 5.98077 9.45801 6.12455C9.31423 6.26833 9.23346 6.46333 9.23346 6.66667V9.49465L7.03315 10.8732C7.03311 10.8732 7.03307 10.8732 7.03303 10.8733C6.86031 10.9812 6.73753 11.1533 6.69168 11.3518C6.64583 11.5503 6.68071 11.7589 6.78865 11.9316C6.89659 12.1044 7.06874 12.2273 7.26724 12.2731C7.46574 12.319 7.67433 12.2841 7.84711 12.1761Z" fill="black" stroke="black" stroke-width="0.2"/>
</svg>
