<svg width="163" height="241" viewBox="0 0 163 241" fill="none" xmlns="http://www.w3.org/2000/svg">
<g id="Third Pic">
<g id="OBJECTS">
<g id="Group">
<path id="Vector" d="M87.8183 31.0899C79.164 29.8499 70.1376 31.0699 62.0708 34.6099C53.6123 38.3199 46.446 44.8299 42.5301 53.4099C39.133 60.8399 37.6743 69.0099 36.0589 77.0499C33.9835 87.3399 31.6045 97.6099 27.9039 107.42C26.6508 110.74 25.1725 114.11 22.5782 116.49C20.5615 118.34 18.0259 119.45 15.7155 120.9C11.0652 123.84 7.29613 128.35 5.61226 133.67C4.47663 137.25 4.3102 141.18 5.23045 144.82C5.60247 146.3 7.16886 148.52 6.94369 149.94C6.75768 151.13 4.51579 153.15 3.87944 154.31C0.276751 160.92 0.0907423 169.25 2.78297 176.23C6.00386 184.59 12.9743 191.1 20.9727 194.86C28.9612 198.62 37.919 199.83 46.7104 199.7C52.3591 199.62 58.1254 198.97 63.2553 196.54C68.8552 193.88 73.3096 189.29 78.2046 185.44C83.0995 181.59 89.0224 178.33 95.1607 179.08C100.927 179.79 105.646 183.86 110.658 186.87C119.606 192.25 129.22 192.95 138.775 188.77C146.382 185.45 151.433 173.81 153.195 166.08C155.212 157.22 153.802 147.31 148.261 140.19C145.873 137.12 142.701 134.45 141.692 130.66C140.801 127.3 141.829 123.75 142.074 120.28C142.446 114.86 140.801 109.33 137.541 105.04C134.81 101.45 131.041 98.7499 128.495 95.0199C125.94 91.2799 124.785 86.7399 123.875 82.2799C121.956 72.8599 120.908 63.1699 117.511 54.1899C112.234 40.2399 102.033 33.1299 87.828 31.0999L87.8183 31.0899Z" fill="#AF64AF"/>
<g id="Group_2" style="mix-blend-mode:multiply" opacity="0.53">
<path id="Vector_2" d="M111.05 69.8501C110.355 69.8901 109.63 69.9501 108.867 69.9501C105.871 69.9501 102.738 69.0401 99.7326 68.7701C92.4979 68.1301 85.1946 68.1701 78.0284 66.8701C73.1138 65.9801 69.2664 63.8201 64.1071 63.9301C59.124 64.0401 54.1801 65.3501 49.7453 67.6501C41.9721 71.6901 38.6239 78.9201 37.3904 87.5301C36.4408 94.1601 36.6072 100.94 35.2855 107.5C34.4534 111.64 32.936 115.77 30.4004 119.14C27.855 122.52 24.125 124.63 21.3251 127.8C18.1532 131.39 15.7644 136.5 17.5266 140.99C18.114 142.49 19.142 143.87 19.1909 145.49C19.2399 147.2 18.163 148.7 17.2427 150.12C13.2974 156.22 11.2904 163.95 13.2876 170.97C15.3141 178.12 21.1978 183.61 27.7865 186.79C33.6408 189.62 40.1903 190.9 46.6614 190.6C58.4093 190.05 69.2859 184.46 79.7514 178.98C84.1862 176.65 88.6406 174.33 93.2419 172.35C97.3537 170.59 101.299 170.28 105.763 170.17C114.858 169.96 124.021 172.14 132.049 176.52C135.368 178.33 138.697 180.76 139.891 184.4C142.926 181.58 144.326 177.4 145.363 173.34C147.214 166.11 148.281 158.42 146.362 151.22C144.688 144.93 140.713 139.3 135.388 135.7C132.744 133.91 129.563 132.33 128.535 129.27C127.477 126.14 129.142 122.82 129.856 119.58C131.511 112.06 127.751 104.18 122.24 98.9201C121.564 98.2801 120.84 97.6201 120.536 96.7301C120.243 95.8701 120.389 94.9201 120.507 94.0201C121.133 89.4701 121.124 84.8301 120.477 80.2801C120.027 77.1201 119.175 73.8201 116.943 71.5901C115.044 69.6901 113.184 69.7101 111.069 69.8401L111.05 69.8501Z" fill="#AF64AF"/>
</g>
<path id="Vector_3" d="M99.3313 30.86C100.575 26.5 100.056 21.69 98.3621 17.61C96.8741 14.04 94.4853 10.82 91.2351 8.87C87.975 6.91 83.8045 6.33 80.1137 7.75C81.4256 5.45 83.1094 3.35 85.0576 1.57C82.1207 1.88 79.2914 3.66 77.6271 6.24C78.1753 4.16 78.7236 2.08 79.2718 0C76.4327 2.23 75.1404 6.36 76.2565 9.67C72.7223 6.88 67.0442 8.01 63.6666 11.4C60.2793 14.78 58.9479 19.82 59.0752 24.51C59.2122 29.67 61.0234 34.77 64.5575 38.26C71.8119 45.43 91.8714 44.65 97.765 34.58C98.4503 33.4 98.9789 32.15 99.3411 30.86H99.3313Z" fill="#AF64AF"/>
</g>
<g id="Group_3">
<path id="Vector_4" d="M132.578 147.14C129.709 142.61 123.238 141.98 118.568 140.87C113.448 139.64 108.064 138.5 103.188 136.96C99.0473 135.65 94.2503 134.02 92.4391 129.87C91.1077 126.82 90.8238 123.48 90.6378 120.21C90.5888 119.31 90.5791 111.01 90.7357 111.02C87.2701 110.98 83.6674 112.04 80.094 112C78.8116 111.98 69.795 111.87 69.4132 110.63C71.2635 116.6 71.1754 123.12 69.1489 129.04C68.1993 131.82 67.2203 133.49 64.6358 135C62.0023 136.53 59.1534 137.68 56.2458 138.62C49.6963 140.73 42.5595 140.83 36.1569 143.43C26.1026 147.5 24.1936 158.59 21.2664 168.05C17.6245 179.81 14.5211 191.74 11.9464 203.79C10.6933 209.64 9.61638 215.95 11.9562 221.44C14.296 226.93 21.5111 230.59 26.2495 227.06C28.3739 225.48 29.5095 222.9 30.5277 220.42C35.4912 208.25 39.5442 195.69 42.6476 182.89C53.1424 188.88 66.8189 189.67 78.606 189.67C85.1261 189.67 91.6168 189.02 98.0683 188.07C105.812 186.93 114.075 184.45 120.458 179.77C116.043 183 127.83 212.21 129.514 216.36C130.982 219.99 134.614 224.31 138.569 225.13C141.301 225.7 144.12 223.98 145.618 221.58C150.719 213.4 145.833 200.51 143.856 192.06C141.712 182.89 139.607 173.7 137.081 164.62C135.711 159.7 135.231 151.86 132.842 147.55C132.764 147.41 132.686 147.27 132.597 147.14H132.578Z" fill="#FFAAA4"/>
<g id="Group_4">
<path id="Vector_5" d="M45.7019 234.06C42.2656 232.2 38.9664 230.04 35.7357 227.77C39.3188 220.34 39.965 211.36 41.3943 203.32C41.6391 201.91 41.8936 200.49 41.7174 199.07C41.5705 197.83 41.1006 196.64 40.7873 195.42C40.3566 193.71 39.6713 184.17 41.3649 182.69C39.7006 184.07 36.9301 183.96 35.3931 182.45C34.5609 181.63 34.0421 180.46 32.9652 179.96C31.9862 179.51 30.8408 179.76 29.7639 179.73C26.2199 179.64 23.2732 175.96 24.0955 172.63C21.7068 173.03 18.4467 172.95 17.8006 170.69C17.3698 169.18 18.5055 167.72 19.3768 166.39C23.2046 160.6 22.9109 152.76 27.4632 147.48C33.9148 139.98 48.1885 138.64 57.5085 137.79C57.2736 137.81 60.005 149.53 60.3182 150.57C61.6595 155.01 63.4412 159.35 65.9181 163.32C67.7879 166.32 70.6466 170.95 74.2199 172.25C77.5387 173.46 83.491 173.58 86.8196 172.8C94.162 171.08 101.035 164.51 103.834 157.99C106.713 151.3 107.006 144.52 108.338 137.55C108.211 138.23 121.055 140.35 122.23 140.63C126.371 141.59 131.168 142.55 133.948 145.95C135.221 147.51 135.936 149.42 136.464 151.34C137.815 156.21 138.011 161.26 139.049 166.19C139.284 167.32 143.513 176.35 143.895 175.93C142.838 177.08 140.742 177.11 139.656 175.99C139.44 178.48 136.024 180.09 133.85 178.73C133.175 178.31 132.46 177.64 131.697 177.89C131.364 178 131.119 178.27 130.904 178.55C129.523 180.36 128.985 182.83 127.095 184.15C125.176 185.5 122.142 185.02 120.761 183.16C119.743 190.27 119.41 197.49 119.988 204.65C120.272 208.17 120.771 211.68 121.564 215.12C121.711 215.76 124.667 223.6 124.697 223.55C123.307 225.49 121.182 226.82 119.097 228.06C111.422 232.62 103.874 236.26 95.1214 238.44C84.0882 241.2 72.4284 241.63 61.2091 239.69C55.5995 238.71 50.4989 236.67 45.6823 234.06H45.7019Z" fill="#584E7C"/>
<g id="Group_5">
<g id="Group_6" style="mix-blend-mode:multiply" opacity="0.36">
<path id="Vector_6" d="M43.4891 140.19C48.5799 141.22 49.4218 147.57 50.2638 151.79C51.1155 156.35 51.9868 160.87 52.3882 165.52C51.4386 163.38 50.6945 161.17 50.0484 158.94C49.0694 155.6 48.3547 152.17 47.8163 148.73C47.3464 145.44 46.5925 142 43.4891 140.18V140.19Z" fill="#584E7C"/>
</g>
<g id="Group_7" style="mix-blend-mode:multiply">
<path id="Vector_7" d="M51.1841 147.43C52.7896 152.22 54.0036 157.04 54.8455 162.03C52.7896 157.43 51.5463 152.48 51.1841 147.43Z" fill="#D67145"/>
</g>
<g id="Group_8" style="mix-blend-mode:multiply" opacity="0.36">
<path id="Vector_8" d="M59.3977 167.12C62.6871 170.94 66.0157 174.87 70.3331 177.12C79.2125 181.92 89.7563 178.48 97.549 172.92C101.602 170.03 105.234 166.54 108.161 162.43C105.851 166.98 102.434 170.95 98.4301 174.14C90.559 180.56 78.8013 184.12 69.6282 178.44C65.1542 175.79 62.1389 171.44 59.4075 167.13L59.3977 167.12Z" fill="#584E7C"/>
</g>
<g id="Group_9" style="mix-blend-mode:multiply" opacity="0.36">
<path id="Vector_9" d="M101.504 179.72C107.418 168.27 113.203 155.56 117.942 143.56C115.563 156.73 109.787 169.35 101.504 179.72Z" fill="#584E7C"/>
</g>
<g id="Group_10" style="mix-blend-mode:multiply" opacity="0.36">
<path id="Vector_10" d="M120.222 189.87C118.02 175 117.922 157.55 127.379 145.14C120.36 158.68 120.653 174.94 120.222 189.87Z" fill="#584E7C"/>
</g>
<g id="Group_11" style="mix-blend-mode:multiply" opacity="0.36">
<path id="Vector_11" d="M35.0796 146.24C42.608 152.78 41.6486 178.14 40.1704 187.72C39.6613 180.65 39.6221 173.6 39.1326 166.56C38.9172 163.05 38.5942 159.56 38.183 156.07C37.7522 152.62 37.1648 149.14 35.0796 146.24Z" fill="#584E7C"/>
</g>
<g id="Group_12" style="mix-blend-mode:multiply">
<path id="Vector_12" d="M45.4863 179.13C44.801 182.86 43.264 187.31 39.2893 188.39C42.5885 186.09 43.5283 182.4 45.4863 179.13Z" fill="#D67145"/>
</g>
<g id="Group_13" style="mix-blend-mode:multiply" opacity="0.36">
<path id="Vector_13" d="M40.3762 191.22C41.0224 202.17 51.1158 206.96 60.6903 204.19C63.7056 203.37 66.5838 201.9 69.0999 199.78C67.1615 202.47 64.2832 204.48 61.1406 205.63C57.9785 206.8 54.5129 207.12 51.1451 206.47C44.4292 205.26 38.9273 198.13 40.386 191.22H40.3762Z" fill="#584E7C"/>
</g>
<g id="Group_14" style="mix-blend-mode:multiply" opacity="0.36">
<path id="Vector_14" d="M87.4947 200.41C90.7254 198.95 94.142 201.5 97.0007 202.61C98.4692 203.15 100.026 203.5 101.602 203.66C105.087 204.02 108.788 203.78 111.979 202.27C115.797 200.17 118.989 196.66 120.036 192.17C120.076 193.87 119.645 195.6 118.891 197.17C117.325 200.29 114.769 203.05 111.568 204.42C106.712 206.31 101.181 206.13 96.4231 203.99C93.4078 202.55 91.0386 199.84 87.4947 200.41Z" fill="#584E7C"/>
</g>
<g id="Group_15" style="mix-blend-mode:multiply" opacity="0.36">
<path id="Vector_15" d="M40.4347 210.78C41.1494 217.25 47.7576 219.86 53.0148 221.79C58.5853 223.9 64.283 225.66 70.1276 226.75C74.024 227.46 77.9791 227.83 81.993 227.86C74.0338 229.42 65.7221 228.09 58.0566 225.61C51.2232 223.02 40.1117 220.03 40.4347 210.78Z" fill="#584E7C"/>
</g>
<g id="Group_16" style="mix-blend-mode:multiply" opacity="0.36">
<path id="Vector_16" d="M75.8156 222.03C86.9467 221.1 96.9912 216.24 107.457 212.68C98.1659 218.69 87.0446 223.81 75.8156 222.03Z" fill="#584E7C"/>
</g>
<g id="Group_17" style="mix-blend-mode:multiply" opacity="0.36">
<path id="Vector_17" d="M112.802 222.22C112.518 227.18 103.893 230.01 99.9379 231.41C89.4627 234.72 78.126 234.5 67.5137 232.07C62.1978 230.86 57.0287 229.04 52.1533 226.63C62.3838 229.97 73.0156 232.04 83.7356 231.97C90.383 231.9 97.0597 230.97 103.364 228.81C106.791 227.43 111.745 226.38 112.802 222.22Z" fill="#584E7C"/>
</g>
<g id="Group_18" style="mix-blend-mode:multiply" opacity="0.36">
<path id="Vector_18" d="M42.7744 223.71C49.3728 231.81 59.8187 233.49 69.1778 236.41C59.4075 236.27 47.2778 233.64 42.7744 223.71Z" fill="#584E7C"/>
</g>
</g>
</g>
<g id="Group_19">
<path id="Vector_19" d="M65.5558 133.16C64.6551 134.87 65.3698 136.99 66.5641 138.53C68.3165 140.8 71.0283 142.29 73.8968 142.95C76.7554 143.61 79.7609 143.47 82.649 142.93C88.4152 141.85 94.2207 138.72 96.3549 133.45" stroke="#FDFFA9" stroke-width="0.95" stroke-miterlimit="10" stroke-linecap="round"/>
<path id="Vector_20" d="M79.2912 149.49C79.8199 149.84 80.4954 150.03 81.1023 149.84C81.6604 149.67 82.0813 149.23 82.3848 148.75C83.5009 146.99 83.2365 144.53 81.7778 143.03C81.3471 142.59 80.7695 142.21 80.1429 142.26C79.2912 142.33 78.7332 143.13 78.4003 143.89C77.9892 144.83 77.7248 145.86 77.8227 146.87C77.9206 147.89 78.4297 148.9 79.301 149.48L79.2912 149.49Z" fill="#ADCEEA"/>
</g>
</g>
<g id="Group_20">
<path id="Vector_21" d="M72.3012 37.6302C68.8062 38.2702 65.3797 39.2802 62.1197 40.6402C53.7787 44.1302 47.983 50.9902 45.5062 59.3802C44.0475 64.3302 43.6461 69.2202 44.4097 74.3202C44.0573 72.9202 42.628 71.9002 41.1301 71.7902C39.642 71.6902 38.154 72.4102 37.1945 73.5202C32.7793 78.6102 36.705 87.9902 40.856 92.0502C42.5594 93.7202 44.8796 95.0702 47.3859 94.6802C48.59 97.7602 50.8906 101.11 52.8193 103.85C55.766 108.04 59.9463 111.37 64.5378 113.77C72.2327 117.79 79.859 119.7 88.1511 115.94C92.8992 113.79 97.0404 110.51 100.33 106.58C104.05 102.15 106.037 97.3102 107.574 91.8602C108.397 92.5902 109.689 92.6302 110.717 92.2102C111.745 91.7902 112.557 91.0002 113.272 90.1702C117.178 85.6702 119.763 78.7902 118.333 72.9102C117.971 71.4102 117.051 69.9802 115.622 69.2802C113.429 68.2002 111.49 69.2802 110.648 71.2802C111.657 64.4802 110.178 57.2202 106.39 51.3802C102.983 46.1202 97.7257 42.2202 91.9398 39.6202C89.2672 38.4202 85.8994 36.8902 82.9233 36.6602C79.5458 36.4002 75.6102 37.0102 72.2816 37.6202L72.3012 37.6302Z" fill="#F4BDBD"/>
<g id="Group_21">
<path id="Vector_22" d="M61.17 82.0802C59.633 82.2302 58.0764 82.0402 56.6471 81.4802C54.6891 80.7102 53.1814 79.4202 51.4388 78.3002C50.4305 77.6602 49.5396 77.3002 48.9718 78.5502C48.2277 80.2002 49.1773 83.3502 49.8724 84.9102C52.5157 90.8602 60.6022 92.5202 65.7713 88.9702C67.4453 87.8202 68.7768 86.1602 69.5991 84.2702C70.1572 82.9902 71.4788 79.2502 70.0984 78.2002C69.1684 77.4902 67.8859 78.8502 67.2006 79.4702C65.5559 80.9602 63.3923 81.8602 61.1798 82.0702L61.17 82.0802Z" fill="white"/>
<path id="Vector_23" d="M92.8505 80.6401C94.5638 81.0101 96.3553 81.0401 98.0686 80.6901C99.6252 80.3701 101.299 78.8001 102.729 78.0401C103.776 77.4901 104.696 77.2101 105.147 78.5101C105.744 80.2201 104.54 83.2801 103.717 84.7701C100.692 90.3001 92.8799 91.0501 88.1024 87.3401C85.6647 85.4401 84.1179 82.3901 84.02 79.2501C84.0102 78.9201 84.02 78.5701 84.1375 78.2601C84.4508 77.4701 85.4494 77.1601 86.2619 77.3601C87.3584 77.6301 88.122 78.5601 89.052 79.1501C90.1975 79.8701 91.5191 80.3501 92.831 80.6301L92.8505 80.6401Z" fill="white"/>
</g>
<g id="Group_22">
<g id="Group_23">
<g id="Group_24" style="mix-blend-mode:multiply" opacity="0.66">
<path id="Vector_24" d="M38.9566 81.1802C38.4476 79.7102 38.8881 77.3102 40.5818 76.7402C42.6474 76.5202 44.5369 81.9002 44.9481 83.6202C45.1928 84.7002 45.3397 85.8102 45.369 86.9202C45.369 87.4902 45.3788 88.1902 44.7914 88.7802C44.204 89.3402 43.225 89.0402 42.8432 88.4202C41.5999 86.3602 42.7453 83.8902 43.6852 81.9902C43.1859 83.8602 42.2656 86.2202 43.4208 87.9502C44.204 88.7502 44.5663 87.8002 44.4586 86.9602C44.2921 83.8102 43.2544 80.7402 41.5999 78.0702C40.9734 76.9902 40.2587 77.2402 39.6419 78.1902C39.0447 79.0102 38.8 80.1002 38.9566 81.1802Z" fill="#EA9C92"/>
</g>
<g id="Group_25" style="mix-blend-mode:multiply" opacity="0.66">
<path id="Vector_25" d="M116.14 75.6002C115.974 74.6202 115.269 73.6002 114.29 74.3402C113.565 74.9302 113.389 76.0702 113.047 76.9402C112.812 77.7302 109.591 87.0902 111.833 85.5802C113.996 84.8502 114.055 79.8802 111.196 80.7502C111.607 80.4102 112.224 80.4202 112.714 80.6502C114.241 81.4602 114.3 83.8002 113.497 85.1802C112.939 85.9602 112.048 86.7702 111.03 86.6402C108.465 85.6102 112.165 77.1502 112.988 75.2402C113.781 73.2702 116.16 73.1202 116.15 75.6102L116.14 75.6002Z" fill="#EA9C92"/>
</g>
</g>
<g id="Group_26" style="mix-blend-mode:multiply" opacity="0.66">
<path id="Vector_26" d="M71.3612 68.4902C73.9947 72.9302 74.0926 78.5502 73.1919 83.5202C72.8493 85.0002 72.1934 86.8802 72.2717 88.3302C72.3696 89.3402 73.701 89.6402 74.5527 89.8102C75.6101 90.0002 76.7261 90.0502 77.803 89.7902C76.7848 90.2602 75.6198 90.3302 74.494 90.2902C69.227 90.0602 72.4381 84.6302 72.5262 81.6902C72.9961 77.2502 73.0353 72.7002 71.3514 68.5002L71.3612 68.4902Z" fill="#EA9C92"/>
</g>
<g id="Group_27">
<path id="Vector_27" d="M62.0706 76.22C60.8566 76.71 59.6035 77.07 58.3406 76.85C57.0092 76.62 55.854 75.78 54.5617 75.36C53.0932 74.89 51.4485 75 50.0583 75.66C51.4779 75.07 53.0834 75.9 54.268 76.89C57.1071 79.25 60.3574 81.26 63.9698 78.97C65.781 77.83 66.8774 76.11 68.7473 74.96C67.083 74.25 65.1838 74.87 63.5293 75.59C63.0496 75.8 62.5699 76.01 62.0706 76.21V76.22Z" fill="#262135"/>
<path id="Vector_28" d="M96.4037 76.0701C92.7814 76.0901 88.9242 72.9401 85.4977 74.7101C88.5914 76.1701 91.5283 79.5501 95.1996 79.2301C96.9519 79.0801 98.9197 77.9401 100.251 76.7901C100.936 76.2001 103.031 73.4001 104.128 73.8301C101.739 72.8901 99.6246 75.5501 97.4219 75.9801C97.0792 76.0501 96.7464 76.0801 96.4037 76.0801V76.0701Z" fill="#262135"/>
</g>
<g id="Group_28">
<path id="Vector_29" d="M72.1546 96.7503C70.0008 96.9203 67.8568 96.9003 65.6541 96.6503C67.0932 97.7003 68.1994 99.1703 69.619 100.19C72.6343 102.35 76.5502 103.14 80.1431 102.33C82.0816 101.89 83.8535 100.94 85.4297 99.7303C86.301 99.0703 87.1527 98.3502 87.9163 97.5602C88.3079 97.1502 89.1597 95.3803 89.5513 95.2603C87.1038 95.9903 84.8227 95.9502 82.3165 95.8802C79.8397 95.8102 77.3628 96.0902 74.9055 96.4502C73.9755 96.5802 73.0552 96.6903 72.1448 96.7603L72.1546 96.7503Z" fill="white"/>
<path id="Vector_30" d="M84.049 94.8103C82.561 94.2703 81.0631 93.2703 79.4771 94.1703C78.9681 94.4603 78.5275 94.9303 77.9499 94.9803C77.5387 95.0203 77.1373 94.8203 76.7457 94.7003C74.5234 94.0203 72.399 95.5003 70.304 96.0303C69.1585 96.3203 67.9642 96.3303 66.7894 96.2503C66.3097 96.2203 63.9895 96.2303 63.7349 95.8503C65.9083 98.9903 69.2858 102.66 72.8102 104.15C75.4339 105.26 78.4688 105.42 81.1316 104.39C85.5273 102.7 88.2097 98.2503 90.5691 94.1003C88.8852 94.8903 86.6042 95.4403 84.7539 95.0203C84.5189 94.9703 84.284 94.8903 84.0392 94.8003L84.049 94.8103ZM84.6854 98.5303C83.5595 99.2103 82.3847 99.8303 81.1806 100.37C80.2309 100.79 79.2617 101.17 78.2436 101.36C74.0241 102.14 69.3054 99.2003 65.967 96.8803C67.3768 97.2203 68.904 97.4803 70.3529 97.4303C71.5179 97.3803 72.6633 96.9103 73.8479 97.0103C75.1206 97.1103 76.3052 97.8503 77.5877 97.8403C78.4786 97.8403 79.3205 97.4703 80.1331 97.1003C81.0239 96.7103 81.6505 96.4003 82.6001 96.4403C84.9007 96.5503 86.8098 96.5103 88.9636 95.4303C87.6223 96.5803 86.193 97.6203 84.6854 98.5403V98.5303Z" fill="#D171D1"/>
</g>
<g id="Group_29">
<path id="Vector_31" d="M87.2109 69.3102C87.113 69.2802 87.0249 69.2402 86.927 69.2002C85.7033 68.6802 84.8417 67.1402 85.4389 65.9402C85.6543 65.5002 86.0361 65.1702 86.4277 64.8802C89.678 62.5102 94.8079 62.0002 98.5672 63.1102C100.32 63.6302 101.974 64.6402 103.022 66.1702C104.069 67.6902 104.441 69.6002 104.471 71.4602C104.461 70.5702 102.522 69.1502 101.886 68.7102C100.78 67.9402 99.6147 67.6902 98.2833 67.6602C96.2764 67.6102 94.338 68.1702 92.4094 68.6202C90.7451 69.0102 88.9241 69.8602 87.2207 69.3002L87.2109 69.3102Z" fill="#4C3648"/>
<path id="Vector_32" d="M54.8748 67.9801C57.753 67.7801 61.7081 68.2501 64.4004 69.2601C65.4773 69.6601 66.8283 69.9001 67.6604 69.0801C68.7471 68.0201 68.0422 66.1101 66.9555 65.0501C64.7039 62.8501 61.297 62.3101 58.2033 62.7001C55.981 62.9801 53.7685 63.7601 52.163 65.4101C50.391 67.2301 50.9784 69.1401 50.0483 71.1001C51.0861 68.9201 52.8287 68.1301 54.865 67.9801H54.8748Z" fill="#4C3648"/>
</g>
</g>
<path id="Vector_33" d="M109.669 79.1801C109.64 79.3201 109.611 79.4601 109.581 79.6001C108.514 84.5401 108.015 89.6001 108.093 94.6601C106.497 90.0301 105.567 83.3701 105.802 78.4401C105.979 74.7201 107.114 70.8801 106.194 67.1801C105.234 63.3701 102.875 62.2101 100.447 59.6701C101.544 60.8101 102.63 61.9601 103.727 63.1001C99.6151 62.5301 95.6697 60.7901 92.439 58.1301L97.6081 63.1801C90.4027 61.7001 84.147 56.1001 81.7582 48.9901C82.4337 53.9901 84.6561 58.7601 88.0238 62.4601C84.4994 60.3501 81.8855 56.8801 80.1919 53.0801C78.8898 50.1601 78.5863 47.0501 77.5486 44.0801C76.3836 40.7401 75.6297 42.5201 73.9263 44.6401C70.9893 48.3001 66.8678 50.9801 62.3546 52.0801C60.2106 52.6001 57.9687 52.7901 55.952 53.6901C48.0026 57.2301 47.3956 68.0001 47.6208 75.5401C47.7382 79.5701 48.2375 83.5801 48.3452 87.6101C48.4333 91.2201 47.1509 94.8701 47.2194 98.3201C47.1313 93.9101 47.0432 89.4701 46.3775 85.1101C45.7215 80.8801 44.5272 76.7401 43.9593 72.5001C42.8629 64.3901 44.3803 54.4301 49.8529 48.1901C56.931 40.1201 67.9838 35.7301 78.459 35.3901C83.6281 35.2201 87.8867 36.2901 92.5076 38.4601C96.7858 40.4701 100.731 43.1701 103.952 46.5601C107.77 50.5801 110.276 55.8301 111.618 61.0801C113.086 66.8401 110.932 73.4901 109.669 79.1701V79.1801Z" fill="#AF64AF"/>
</g>
<g id="Group_30">
<path id="Vector_34" d="M136.22 67.7999C134.555 67.4399 132.911 66.9599 131.315 66.3699C132.627 66.1099 133.939 65.8599 135.251 65.5999C135.525 65.5499 135.809 65.4799 136.004 65.2899C136.171 65.1199 136.23 64.8799 136.278 64.6499C136.934 61.8199 137.59 58.9899 138.246 56.1599C138.579 59.3799 138.902 62.5999 139.235 65.8199C140.997 65.7299 142.769 65.8799 144.482 66.2699C143.21 66.7299 141.927 67.1899 140.655 67.6399C140.39 67.7299 140.116 67.8399 139.93 68.0499C139.734 68.2799 139.685 68.5999 139.646 68.8999C139.147 72.9299 138.648 76.9599 138.158 80.9899C137.512 76.5899 136.866 72.1899 136.21 67.7899L136.22 67.7999Z" fill="#FDFFA9"/>
<path id="Vector_35" d="M145.726 80.09C145.912 78.4 146.108 76.72 146.294 75.03C146.597 76.7 146.891 78.37 147.194 80.04L151.13 80.12C150.601 81.29 148.447 80.51 147.586 81.48C147.282 81.83 147.224 82.32 147.184 82.77C147.038 84.52 146.891 86.28 146.734 88.03C146.323 85.92 145.912 83.82 145.501 81.71C143.973 81.63 142.446 81.35 140.997 80.87C142.427 80.62 143.866 80.37 145.295 80.13" fill="white"/>
<path id="Vector_36" d="M158.355 48.51C158.1 46.5 157.836 44.49 157.581 42.48C157.376 44.2 157.033 45.91 156.563 47.58C154.84 47.48 152.657 47.64 150.934 47.51C152.451 48.34 154.067 49.02 155.741 49.52C155.741 52.15 156.005 54.78 156.524 57.37C156.837 54.83 157.16 52.3 157.474 49.76C159.295 49.44 161.125 49.13 162.946 48.81C161.409 48.25 159.99 48.36 158.355 48.51Z" fill="#CEAF63"/>
<path id="Vector_37" d="M28.4717 98.12C28.7459 96.15 29.02 94.19 29.2843 92.22C29.6172 94.26 29.9598 96.3 30.2927 98.35C32.0059 98.33 33.7191 98.36 35.4226 98.44C33.7485 99.05 31.9961 99.44 30.2241 99.6C30.2241 102.03 30.2437 104.47 30.2535 106.9C29.8228 104.39 29.4018 101.88 28.971 99.38C27.5515 99.19 26.1515 98.82 24.8299 98.29C26.0536 98.2 27.2774 98.12 28.5011 98.03" fill="#FDFFA9"/>
<path id="Vector_38" d="M17.5559 89.86C19.044 90.14 20.8062 88.92 19.5139 86.86C18.3196 84.97 15.8917 85.32 15.8917 87.66C15.8917 89.01 16.6749 89.69 17.5559 89.86Z" fill="#CEAF63"/>
<path id="Vector_39" d="M26.0929 112.87C27.9138 113.85 29.6271 110.86 27.5124 110.28C25.9558 109.86 24.458 111.99 26.0929 112.87Z" fill="white"/>
<path id="Vector_40" d="M13.2876 118.13C13.3953 114.65 11.124 110.62 10.5855 107.13C10.5464 106.86 10.4974 106.57 10.3212 106.36C10.0765 106.07 9.65551 105.99 9.2737 105.94C6.64021 105.54 4.00672 105.15 1.37323 104.75C3.28227 104.53 7.87374 104.83 9.40097 103.71C10.8597 102.63 10.7128 97.9801 10.9771 96.0701C11.6135 98.5501 12.2498 101.03 12.8862 103.51C15.4316 103.9 17.9867 104.29 20.5321 104.69C18.2413 105.13 15.9504 105.56 13.6596 106C13.5323 110.05 13.405 114.1 13.2778 118.14L13.2876 118.13Z" fill="#FDFFA9"/>
</g>
<g id="Group_31">
<g id="Group_32">
<path id="Vector_41" d="M73.3586 118.83C74.0634 120.22 74.4942 121.72 74.4844 123.36C74.4844 125.24 73.9753 127.08 73.4761 128.89C67.9741 148.79 60.8079 168.61 52.7899 187.61C49.1285 196.28 44.8209 204.73 39.3288 212.35C35.2856 217.95 26.4942 230.51 18.8581 230.33C8.08915 230.07 10.4779 215.26 12.5925 208.85C15.6959 199.46 21.4132 191.21 27.0327 183.24C39.3092 165.84 50.2641 147.59 60.4359 128.77C51.9578 124.26 45.1538 117.19 41.2183 108.25C39.0253 103.05 37.0967 97.8501 36.8911 92.1201C36.8617 91.3601 36.8911 90.5101 37.4002 89.9401C37.9093 89.3601 39.0743 89.39 39.2505 90.13C38.8687 88.48 38.3009 86.31 39.4365 84.77C39.7106 84.4 40.1316 84.09 40.5721 84.15C40.9441 84.2 41.228 84.49 41.4532 84.79C41.9623 85.45 42.3441 86.2 42.5888 87C42.6476 86.03 43.5483 85.24 44.5175 85.67C45.3888 86.06 45.7901 87.0401 46.123 87.9401C47.6111 91.8801 48.7761 95.96 50.5383 99.81C51.204 101.27 51.9382 102.72 53.0445 103.86C53.3969 104.23 54.1312 104.5 54.3368 104.02C54.4151 103.84 54.3661 103.63 54.3074 103.45C53.2501 99.85 51.948 96.35 50.6851 92.81C50.2935 91.71 49.9019 90.49 50.3131 89.38C50.4599 88.98 50.7634 88.58 51.1844 88.53C51.762 88.46 52.1634 89.03 52.4277 89.54C56.1479 96.72 58.3213 105.33 65.0469 110.39C67.9839 112.6 71.5572 115.34 73.3488 118.85L73.3586 118.83Z" fill="#FFD2D2"/>
<g id="Group_33">
<g id="Group_34" style="mix-blend-mode:multiply" opacity="0.54">
<path id="Vector_42" d="M38.8685 87.23C40.1509 94.79 42.4516 101.94 45.8095 108.8C41.3649 102.64 38.8783 94.88 38.8685 87.23Z" fill="#EA9C92"/>
</g>
<g id="Group_35" style="mix-blend-mode:multiply" opacity="0.54">
<path id="Vector_43" d="M42.5397 86.28C44.0375 93.3 46.3773 99.91 49.6276 106.29C45.3102 100.63 42.7746 93.45 42.5397 86.28Z" fill="#EA9C92"/>
</g>
</g>
<g id="Group_36">
<path id="Vector_44" d="M38.2321 93.56C39.074 93.83 39.3383 92.42 39.3188 91.89C39.2992 91.15 39.1915 90.41 39.0153 89.69C38.8293 88.94 38.1538 87.99 37.3901 88.9C37.1943 89.13 37.0964 89.42 37.0377 89.71C36.8321 90.69 37.0181 91.7 37.4195 92.61C37.5566 92.92 37.8601 93.44 38.2321 93.56Z" fill="#D67145"/>
<path id="Vector_45" d="M39.6808 88.3601C40.0431 88.9901 40.5619 89.3401 41.2472 88.8101C41.5703 88.5601 41.7563 88.1501 41.8052 87.7501C41.864 87.3501 41.8052 86.9401 41.7563 86.5301C41.7171 86.2301 41.678 85.9301 41.6388 85.6301C41.5899 85.2201 41.5311 84.8001 41.3647 84.4201C41.1983 84.0401 40.885 83.7101 40.4836 83.6101C39.1326 83.2701 38.8389 84.7201 38.927 85.7501C38.9662 86.2401 39.2011 87.5501 39.6808 88.3701V88.3601Z" fill="#D67145"/>
<path id="Vector_46" d="M42.9019 85.3C42.9019 85.3 42.8823 85.32 42.8725 85.34C42.6375 85.68 42.6571 86.14 42.7256 86.54C42.8627 87.29 43.1564 88.01 43.5872 88.64C43.7046 88.81 43.8417 88.99 44.0277 89.08C44.762 89.46 45.4277 88.51 45.457 87.88C45.4864 87.12 45.3004 86.36 44.9969 85.67C44.6249 84.83 43.5872 84.34 42.8921 85.3H42.9019Z" fill="#D67145"/>
<path id="Vector_47" d="M52.4567 90.3802C52.3001 89.7802 52.0749 88.9302 51.6833 88.4302C51.3603 88.0302 50.8316 88.0002 50.4302 88.3302C50.2442 88.4902 50.0484 88.6602 49.9701 88.8902C49.9016 89.1202 49.9701 89.3602 50.0386 89.5902C50.1267 89.8802 50.2246 90.1702 50.3127 90.4602C50.4988 91.0602 50.998 91.9502 51.7812 91.8502C52.4665 91.7602 52.6134 91.0102 52.4665 90.4402C52.4665 90.4202 52.4567 90.4002 52.4469 90.3802H52.4567Z" fill="#D67145"/>
</g>
</g>
<g id="Group_37">
<path id="Vector_48" d="M144.14 205.58C136.68 177.08 119.538 152.43 106.351 126.18C106.086 125.65 105.812 125.09 105.89 124.5C105.949 124 106.253 123.57 106.546 123.16C108.886 119.92 111.804 116.68 113.38 113C114.917 109.4 116.209 105.45 117.09 101.61C118.304 96.2901 118.911 90.9401 117.864 85.5201C117.717 84.7801 117.511 83.9801 116.875 83.5301C116.238 83.0801 115.093 83.3301 115.093 84.0801C115.103 82.4301 115.181 80.2301 113.713 78.9801C113.36 78.6801 112.871 78.4601 112.45 78.6101C112.097 78.7301 111.882 79.0701 111.715 79.3901C111.363 80.1201 111.148 80.9201 111.079 81.7301C110.805 80.8201 109.738 80.2301 108.886 80.8401C108.113 81.3901 107.937 82.4101 107.8 83.3301C107.202 87.4001 106.948 91.5401 106.067 95.5901C105.734 97.1201 105.323 98.6501 104.491 99.9701C104.216 100.39 103.56 100.8 103.247 100.38C103.13 100.22 103.14 100.01 103.149 99.8301C103.394 96.1701 103.913 92.5501 104.373 88.9201C104.52 87.7901 104.637 86.5401 103.981 85.5601C103.746 85.2001 103.365 84.8801 102.934 84.9101C102.347 84.9501 102.072 85.5901 101.926 86.1301C100.261 92.1801 99.2725 98.0701 96.9719 103.89C94.7691 109.48 90.6476 113.08 91.5287 119.75C91.8909 122.48 92.9971 125.03 94.0447 127.57C101.368 145.2 105.479 164.48 110.648 182.94C113.928 194.68 118.187 207.75 125.304 217.73C127.321 220.55 129.67 223.21 132.656 224.9C137.081 227.41 142.632 226.38 145.089 221.54C147.733 216.34 145.491 210.77 144.14 205.59V205.58Z" fill="#FFD2D2"/>
<g id="Group_38">
<g id="Group_39" style="mix-blend-mode:multiply" opacity="0.54">
<path id="Vector_49" d="M114.838 81.23C116.512 88.5 115.788 96.47 112.763 103.28C114.584 96.02 115.259 88.71 114.838 81.23Z" fill="#EA9C92"/>
</g>
<g id="Group_40" style="mix-blend-mode:multiply" opacity="0.54">
<path id="Vector_50" d="M111.001 81.05C112.342 87.91 111.432 95.34 108.426 101.63C110.247 94.86 111.079 88.06 111.001 81.05Z" fill="#EA9C92"/>
</g>
</g>
<g id="Group_41">
<path id="Vector_51" d="M116.884 87.1801C116.111 87.6001 115.533 86.3001 115.435 85.8001C115.298 85.0801 115.23 84.3501 115.24 83.6301C115.259 82.8701 115.719 81.8301 116.679 82.5501C116.914 82.7301 117.08 82.9901 117.207 83.2601C117.628 84.1501 117.668 85.1701 117.472 86.1101C117.403 86.4401 117.217 86.9901 116.875 87.1801H116.884Z" fill="#D67145"/>
<path id="Vector_52" d="M114.29 82.4701C114.065 83.1501 113.634 83.5801 112.841 83.2101C112.459 83.0301 112.195 82.6801 112.048 82.3001C111.901 81.9201 111.862 81.5201 111.823 81.1301C111.793 80.8301 111.764 80.5401 111.735 80.2401C111.696 79.8301 111.656 79.4201 111.735 79.0201C111.823 78.6201 112.048 78.2401 112.42 78.0701C113.683 77.4801 114.3 78.8101 114.437 79.8101C114.505 80.2901 114.564 81.5901 114.28 82.4701H114.29Z" fill="#D67145"/>
<path id="Vector_53" d="M110.433 80.18C110.433 80.18 110.452 80.2 110.462 80.21C110.775 80.49 110.854 80.93 110.873 81.33C110.903 82.08 110.775 82.83 110.482 83.51C110.403 83.7 110.306 83.89 110.139 84.02C109.493 84.53 108.622 83.75 108.455 83.15C108.259 82.42 108.279 81.66 108.426 80.94C108.602 80.06 109.522 79.38 110.423 80.17L110.433 80.18Z" fill="#D67145"/>
<path id="Vector_54" d="M102.102 86.9299C102.131 86.3199 102.151 85.4599 102.434 84.9099C102.669 84.4599 103.188 84.3299 103.648 84.5699C103.874 84.6799 104.099 84.8099 104.226 85.0199C104.343 85.2299 104.334 85.4699 104.314 85.6999C104.285 85.9999 104.265 86.2899 104.236 86.5899C104.187 87.1999 103.883 88.1599 103.09 88.2099C102.386 88.2499 102.082 87.5699 102.102 86.9999C102.102 86.9799 102.102 86.9599 102.102 86.9399V86.9299Z" fill="#D67145"/>
</g>
</g>
</g>
</g>
</g>
</svg>
