<svg width="24" height="26" viewBox="0 0 24 26" fill="none" xmlns="http://www.w3.org/2000/svg">
<g filter="url(#filter0_d_476_14775)">
<path d="M14.4218 10.2885C14.4218 11.1397 13.144 12.6155 12.2215 13.3533C12.1421 13.4167 12.0348 13.4173 11.9555 13.3533C11.033 12.6155 9.75583 11.139 9.75583 10.2885C9.75583 9.76254 10.1298 9.33526 10.589 9.33526C11.0036 9.33526 11.4223 9.58456 11.4223 10.1411C11.4223 10.5091 11.7202 10.8077 12.0888 10.8077C12.4574 10.8077 12.7554 10.5091 12.7554 10.1411C12.7554 9.5459 13.2047 9.33526 13.5886 9.33526C14.0479 9.33526 14.4218 9.7632 14.4218 10.2885ZM19.9977 8.48405V14.6672C19.9977 16.5049 18.5026 18 16.6648 18H7.33285C5.49512 18 4 16.5049 4 14.6672V8.48405C4 7.37422 4.54925 6.3417 5.46845 5.72112L10.1344 2.57292C11.2669 1.80903 12.7307 1.80903 13.8632 2.57292L18.5292 5.72179C19.4484 6.34237 19.9977 7.37488 19.9977 8.48472V8.48405ZM15.755 10.2885C15.755 9.02731 14.7831 8.00213 13.5886 8.00213C12.9954 8.00213 12.4721 8.21409 12.0888 8.57004C11.7055 8.21476 11.1823 8.00213 10.589 8.00213C9.39455 8.00213 8.42269 9.02798 8.42269 10.2885C8.42269 11.8262 10.1884 13.6466 11.1223 14.3945C11.4069 14.6225 11.7475 14.7358 12.0888 14.7358C12.4301 14.7358 12.7701 14.6218 13.0547 14.3945C13.9885 13.6473 15.755 11.8276 15.755 10.2885Z" fill="black"/>
</g>
<defs>
<filter id="filter0_d_476_14775" x="-2" y="0" width="28" height="28" filterUnits="userSpaceOnUse" color-interpolation-filters="sRGB">
<feFlood flood-opacity="0" result="BackgroundImageFix"/>
<feColorMatrix in="SourceAlpha" type="matrix" values="0 0 0 0 0 0 0 0 0 0 0 0 0 0 0 0 0 0 127 0" result="hardAlpha"/>
<feOffset dy="4"/>
<feGaussianBlur stdDeviation="2"/>
<feComposite in2="hardAlpha" operator="out"/>
<feColorMatrix type="matrix" values="0 0 0 0 0 0 0 0 0 0 0 0 0 0 0 0 0 0 0.25 0"/>
<feBlend mode="normal" in2="BackgroundImageFix" result="effect1_dropShadow_476_14775"/>
<feBlend mode="normal" in="SourceGraphic" in2="effect1_dropShadow_476_14775" result="shape"/>
</filter>
</defs>
</svg>
